<svg width="32" height="31" viewBox="0 0 32 31" fill="none" xmlns="http://www.w3.org/2000/svg">
<g clip-path="url(#clip0_627_676)">
<path d="M15.0541 29.9866C15.082 29.4917 15.5007 29.1134 15.9895 29.1416C16.2243 29.1551 16.4442 29.2626 16.6007 29.4403C16.7573 29.6181 16.8376 29.8515 16.8241 30.0893C16.796 30.5842 16.3771 30.9624 15.8884 30.934C15.3997 30.9057 15.0262 30.4815 15.0541 29.9866ZM7.79383 29.0153C8.00502 28.6895 8.43703 28.5987 8.75879 28.8125C8.91339 28.9152 9.02133 29.076 9.05886 29.2593C9.0964 29.4427 9.06045 29.6336 8.95893 29.7901C8.74762 30.1158 8.31558 30.2064 7.99389 29.9925C7.67219 29.7786 7.58263 29.3411 7.79383 29.0153ZM23.3661 28.7386C23.5311 28.6541 23.7225 28.6395 23.8981 28.6981C24.0737 28.7567 24.219 28.8836 24.302 29.051C24.429 29.3058 24.3918 29.6131 24.2079 29.8294C24.0239 30.0457 23.7294 30.1285 23.4617 30.0391C23.1939 29.9498 23.0057 29.7059 22.9848 29.4212C22.9639 29.1365 23.1144 28.8671 23.3661 28.7386ZM9.47683 25.2805C9.80225 24.7771 10.469 24.6361 10.9661 24.9654C11.4632 25.2955 11.6023 25.971 11.2769 26.4747C10.9512 26.9779 10.2844 27.1184 9.78742 26.7887C9.29045 26.459 9.15141 25.7838 9.47683 25.2805ZM21.18 24.8784C21.4342 24.7471 21.7296 24.7235 22.001 24.813C22.2725 24.9024 22.4976 25.0975 22.6268 25.3553C22.825 25.7485 22.7696 26.2238 22.4865 26.5595C22.2035 26.8952 21.7485 27.0251 21.334 26.8884C20.9195 26.7518 20.6271 26.3757 20.5934 25.9356C20.5606 25.507 20.7792 25.1001 21.1496 24.8946L21.18 24.8784ZM14.7828 24.2128C15.0069 23.7458 15.487 23.4616 15.9989 23.4931C16.6955 23.5354 17.2269 24.1407 17.1867 24.8462C17.1577 25.3647 16.8228 25.8143 16.3385 25.985C15.8542 26.1557 15.316 26.0139 14.9753 25.6258C14.6346 25.2377 14.5586 24.6799 14.7828 24.2128ZM3.57889 22.2271C3.78885 22.1196 4.03237 22.1011 4.25582 22.1755C4.47928 22.25 4.66435 22.4114 4.77027 22.6241C4.99066 23.0666 4.81511 23.6064 4.37812 23.8297C3.94113 24.053 3.40811 23.8754 3.18746 23.4329C2.9713 22.9995 3.13505 22.4726 3.55247 22.2412L3.57889 22.2271ZM27.3095 22.4824C27.5778 22.0678 28.1271 21.9519 28.5366 22.2235C28.7334 22.354 28.8709 22.5584 28.9188 22.7916C28.9667 23.0248 28.9211 23.2677 28.7921 23.4669C28.5235 23.8813 27.9741 23.9969 27.5648 23.7251C27.1555 23.4533 27.0412 22.897 27.3095 22.4824ZM12.446 18.5012C13.3139 18.0268 14.3891 18.2097 15.0562 18.9453C15.7233 19.6809 15.8119 20.7813 15.2713 21.6167C14.8743 22.2339 14.1952 22.6051 13.4678 22.6026C12.4815 22.6019 11.6217 21.923 11.3805 20.9546C11.1392 19.9862 11.5781 18.9756 12.446 18.5012ZM17.8888 18.3371C18.8986 18.0079 19.9948 18.4723 20.4724 19.4315C21.0043 20.5062 20.578 21.8141 19.5189 22.357C19.2181 22.5115 18.886 22.5931 18.5488 22.5954C17.488 22.5954 16.585 21.8134 16.4205 20.7521C16.256 19.6908 16.8789 18.6662 17.8888 18.3371ZM7.51464 19.5485C7.84895 19.1553 8.38426 19.0047 8.87093 19.1671C9.35759 19.3294 9.69975 19.7727 9.73782 20.2901C9.7759 20.8076 9.50239 21.2973 9.04487 21.5309C8.42036 21.8497 7.65885 21.5957 7.34374 20.9634C7.11288 20.5002 7.18033 19.9417 7.51464 19.5485ZM22.4832 19.6473C22.8671 19.055 23.6525 18.8901 24.2373 19.2789C24.821 19.6685 24.9836 20.4627 24.6011 21.0552C24.2171 21.6474 23.4318 21.8123 22.847 21.4235C22.2621 21.0348 22.0993 20.2395 22.4832 19.6473ZM8.76233 15.8526C8.82965 14.6663 9.82218 13.7527 10.9948 13.7977C12.1674 13.8428 13.0887 14.8299 13.0671 16.018C13.0458 17.1927 12.1103 18.1367 10.955 18.159L10.9155 18.1594H10.7978C9.62132 18.0898 8.71991 17.0787 8.76631 15.8911L8.76821 15.8514L8.76233 15.8526ZM18.9261 15.8282C18.9944 14.625 20.013 13.7056 21.2012 13.7747C21.7713 13.8043 22.3057 14.0646 22.6845 14.4972C23.2501 15.1385 23.391 16.0564 23.0442 16.8413C22.7035 17.6126 21.9542 18.1141 21.1226 18.1316L21.0787 18.132H20.9539C19.7657 18.0629 18.8579 17.0314 18.9261 15.8282ZM3.63655 15.9274C3.67023 15.3268 4.17827 14.8674 4.77145 14.9013C5.3649 14.9359 5.81852 15.4507 5.78506 16.0517C5.75096 16.6524 5.2426 17.1114 4.64945 17.077C4.0563 17.0427 3.60287 16.5281 3.63655 15.9274ZM26.2138 15.8781C26.2477 15.2775 26.7559 14.8183 27.3491 14.8524C27.9422 14.8865 28.3958 15.401 28.3624 16.0017C28.3282 16.6026 27.8198 17.062 27.2263 17.0281C26.6332 16.9936 26.1799 16.4788 26.2138 15.8781ZM0.708594 15.2973L0.734654 15.2983C0.919188 15.3084 1.09212 15.3926 1.21519 15.5322C1.33826 15.6718 1.4013 15.8554 1.39038 16.0422C1.36833 16.4305 1.03969 16.7273 0.656191 16.7052C0.272696 16.683 -0.0205327 16.3504 0.00112668 15.962C0.0222937 15.5825 0.336371 15.2901 0.708594 15.2973ZM31.3141 15.2245L31.3432 15.2256C31.7271 15.2486 32.0203 15.5818 31.9989 15.9707C31.9827 16.2556 31.7986 16.5027 31.5324 16.5966C31.2662 16.6905 30.9704 16.6128 30.7828 16.3997C30.5953 16.1866 30.553 15.8801 30.6756 15.6231C30.794 15.3749 31.0437 15.2201 31.3141 15.2245ZM13.449 9.33747C14.2621 9.33358 15.0076 9.79507 15.3749 10.5297C15.7133 11.2064 15.6804 12.0125 15.2881 12.6587C14.8958 13.3049 14.2004 13.6986 13.4513 13.6984C12.6363 13.701 11.8901 13.236 11.5253 12.4979C11.1909 11.8218 11.2259 11.0187 11.6177 10.375C12.0094 9.73132 12.7023 9.33881 13.449 9.33747ZM18.5312 9.32202C19.5173 9.3233 20.3767 10.0025 20.6175 10.9709C20.8584 11.9392 20.4192 12.9496 19.5512 13.4237C18.6833 13.8979 17.6083 13.7147 16.9414 12.9791C16.2745 12.2435 16.1859 11.1432 16.7264 10.3079C17.1254 9.69219 17.8039 9.32151 18.5312 9.32202ZM7.39671 10.873C7.78032 10.2806 8.5655 10.1153 9.15053 10.5037C9.73555 10.8921 9.8989 11.6872 9.5154 12.2797C9.13191 12.8721 8.34676 13.0376 7.76166 12.6493C7.48037 12.463 7.28381 12.1711 7.21535 11.8378C7.14689 11.5046 7.21214 11.1575 7.39671 10.873ZM22.9553 10.3973C23.2553 10.244 23.6032 10.2178 23.9223 10.3244C24.2414 10.4311 24.5055 10.6619 24.6564 10.966C24.9711 11.5987 24.7197 12.37 24.0948 12.6887C23.47 13.0073 22.7084 12.7527 22.3937 12.12C22.079 11.4873 22.3304 10.716 22.9553 10.3973ZM3.20688 8.46248C3.40352 8.15874 3.76153 8.00491 4.11387 8.07277C4.46621 8.14064 4.74345 8.41681 4.81625 8.77244C4.88905 9.12808 4.74306 9.4931 4.44639 9.6972C4.14972 9.9013 3.76083 9.90426 3.46117 9.7047C3.05251 9.43257 2.93872 8.87669 3.20688 8.46248ZM27.6209 8.09907C28.058 7.87622 28.5908 8.05428 28.8111 8.49685C29.0314 8.93942 28.8558 9.47903 28.4189 9.70232C27.9813 9.9252 27.4481 9.74701 27.2275 9.30414C27.0077 8.86135 27.1838 8.32192 27.6209 8.09907ZM14.7145 7.08197C14.7546 6.37491 15.353 5.83455 16.0512 5.87483C16.7494 5.91511 17.2833 6.5208 17.2438 7.22789C17.2044 7.93498 16.6065 8.4759 15.9082 8.43625C15.2094 8.39592 14.675 7.78969 14.7145 7.08197ZM9.84905 5.10382C10.3797 4.8331 11.0265 5.04914 11.294 5.58641C11.5615 6.12368 11.3483 6.77879 10.8178 7.04978C10.5629 7.17999 10.2673 7.20228 9.99618 7.11172C9.72503 7.02116 9.50054 6.82519 9.37214 6.56696C9.10493 6.02956 9.31843 5.37455 9.84905 5.10382ZM20.7185 5.45349C21.0439 4.94933 21.7113 4.80767 22.2092 5.13705C22.7072 5.46644 22.8473 6.14218 22.5222 6.64655C22.1971 7.15092 21.5298 7.29301 21.0316 6.96394C20.7919 6.806 20.6242 6.55794 20.5655 6.27454C20.5067 5.99113 20.5618 5.69571 20.7185 5.45349ZM7.99947 1.93162C8.34226 1.75656 8.76029 1.8952 8.93441 2.24168C9.10853 2.58817 8.97316 3.01199 8.63165 3.18959C8.46599 3.27538 8.27336 3.29065 8.09653 3.232C7.9197 3.17336 7.77331 3.04565 7.68985 2.87725C7.51825 2.52948 7.65668 2.10667 7.99947 1.93162ZM23.0388 2.1393C23.1931 1.90029 23.4744 1.77896 23.7515 1.83191C24.0285 1.88487 24.2468 2.10167 24.3044 2.38118C24.3621 2.66069 24.2477 2.94782 24.0147 3.10862C23.7817 3.26943 23.476 3.27221 23.2402 3.11568C22.9185 2.90219 22.8285 2.46527 23.0388 2.1393ZM15.6754 1.04303C16.0139 0.923157 16.3904 1.02162 16.6293 1.29249C16.8681 1.56337 16.9223 1.95328 16.7665 2.28038C16.6107 2.60747 16.2757 2.80729 15.9177 2.78664C15.4291 2.75847 15.0555 2.3348 15.083 1.84007C15.1031 1.4775 15.3369 1.1629 15.6754 1.04303Z" fill="#0033AD"/>
</g>
<defs>
<clipPath id="clip0_627_676">
<rect width="32" height="30" fill="white" transform="translate(0 0.992432)"/>
</clipPath>
</defs>
</svg>
