<svg width="306" height="302" viewBox="0 0 306 302" fill="none" xmlns="http://www.w3.org/2000/svg">
<mask id="path-1-inside-1_1537_4682" fill="white">
<path d="M300 151.975C300 171.673 296.12 191.179 288.582 209.378C281.044 227.576 269.995 244.112 256.066 258.041C242.137 271.97 225.601 283.019 207.403 290.557C189.204 298.095 169.698 301.975 150 301.975C130.302 301.975 110.796 298.095 92.5975 290.557C74.3986 283.019 57.8628 271.97 43.934 258.041C30.0052 244.112 18.9563 227.576 11.4181 209.378C3.87986 191.179 -1.72208e-06 171.673 0 151.975L150 151.975H300Z"/>
</mask>
<path d="M300 151.975C300 171.673 296.12 191.179 288.582 209.378C281.044 227.576 269.995 244.112 256.066 258.041C242.137 271.97 225.601 283.019 207.403 290.557C189.204 298.095 169.698 301.975 150 301.975C130.302 301.975 110.796 298.095 92.5975 290.557C74.3986 283.019 57.8628 271.97 43.934 258.041C30.0052 244.112 18.9563 227.576 11.4181 209.378C3.87986 191.179 -1.72208e-06 171.673 0 151.975L150 151.975H300Z" stroke="#53D3E0" stroke-width="2" mask="url(#path-1-inside-1_1537_4682)"/>
<mask id="path-2-inside-2_1537_4682" fill="white">
<path d="M155.235 280.387C138.144 270.593 123.16 257.535 111.139 241.958C99.1185 226.382 90.2958 208.591 85.175 189.603C80.0543 170.615 78.7358 150.801 81.2947 131.293C83.8537 111.784 90.2401 92.9629 100.089 75.9037C109.938 58.8445 123.057 43.8814 138.697 31.8687C154.337 19.856 172.192 11.029 191.241 5.89163C210.291 0.754269 230.162 -0.592817 249.721 1.92728C269.28 4.44738 288.144 10.7853 305.235 20.5792L230.235 150.483L155.235 280.387Z"/>
</mask>
<path d="M155.235 280.387C138.144 270.593 123.16 257.535 111.139 241.958C99.1185 226.382 90.2958 208.591 85.175 189.603C80.0543 170.615 78.7358 150.801 81.2947 131.293C83.8537 111.784 90.2401 92.9629 100.089 75.9037C109.938 58.8445 123.057 43.8814 138.697 31.8687C154.337 19.856 172.192 11.029 191.241 5.89163C210.291 0.754269 230.162 -0.592817 249.721 1.92728C269.28 4.44738 288.144 10.7853 305.235 20.5792L230.235 150.483L155.235 280.387Z" fill="#8A4AF8" fill-opacity="0.2" stroke="#8A4AF8" stroke-width="2" mask="url(#path-2-inside-2_1537_4682)"/>
</svg>
