<svg width="32" height="33" viewBox="0 0 32 33" fill="none" xmlns="http://www.w3.org/2000/svg">
<path d="M31.5198 20.8636C29.3831 29.4339 20.6995 34.6526 12.1292 32.512C3.55891 30.3753 -1.65594 21.6956 0.480783 13.1253C2.6175 4.55108 11.2972 -0.667666 19.8675 1.46905C28.4417 3.60968 33.6566 12.2894 31.5198 20.8636Z" fill="#F7931A"/>
<path d="M23.0547 14.7112C23.375 12.5823 21.7539 11.4377 19.5352 10.676L20.2539 7.79321L18.5 7.35571L17.8008 10.1643C17.3359 10.0471 16.8633 9.93774 16.3945 9.83227L17.0977 7.00415L15.3438 6.56665L14.625 9.44946C14.2422 9.36353 13.8672 9.27759 13.5039 9.18774V9.17602L11.082 8.57446L10.6172 10.4495C10.6172 10.4495 11.918 10.7463 11.8906 10.7659C12.6016 10.9417 12.7305 11.4143 12.7109 11.7854L11.8906 15.0706C11.9414 15.0862 12.0039 15.1018 12.0742 15.1292C12.0156 15.1174 11.9531 15.1018 11.8867 15.0862L10.7383 19.6877C10.6523 19.9026 10.4336 20.2268 9.93359 20.1057C9.95313 20.1292 8.66016 19.7854 8.66016 19.7854L7.78906 21.7932L10.0703 22.3635C10.4961 22.469 10.9141 22.5823 11.3242 22.6877L10.5977 25.6057L12.3516 26.0432L13.0703 23.1565C13.5508 23.2854 14.0156 23.4065 14.4688 23.5198L13.7539 26.3909L15.5078 26.8284L16.2344 23.9182C19.2266 24.4846 21.4805 24.2542 22.4258 21.5471C23.1914 19.3674 22.3867 18.1096 20.8125 17.2893C21.9609 17.0276 22.8242 16.2698 23.0547 14.7112ZM19.043 20.3362C18.5 22.5159 14.832 21.3401 13.6406 21.0432L14.6055 17.1799C15.793 17.4768 19.6094 18.0627 19.043 20.3362ZM19.5859 14.6799C19.0898 16.6643 16.0352 15.6565 15.0469 15.4104L15.918 11.9065C16.9102 12.1526 20.1016 12.6135 19.5859 14.6799Z" fill="white"/>
</svg>
