<svg width="32" height="33" viewBox="0 0 32 33" fill="none" xmlns="http://www.w3.org/2000/svg">
<path d="M16 32.9924C24.8366 32.9924 32 25.829 32 16.9924C32 8.15588 24.8366 0.992432 16 0.992432C7.16344 0.992432 0 8.15588 0 16.9924C0 25.829 7.16344 32.9924 16 32.9924Z" fill="#F3BA2F"/>
<path d="M12.116 15.3964L16 11.5124L19.886 15.3984L22.146 13.1384L16 6.99243L9.856 13.1364L12.116 15.3964ZM6 16.9924L8.26 14.7324L10.52 16.9924L8.26 19.2524L6 16.9924ZM12.116 18.5884L16 22.4724L19.886 18.5864L22.146 20.8454L16 26.9924L9.856 20.8484L9.853 20.8454L12.116 18.5884ZM21.48 16.9924L23.74 14.7324L26 16.9924L23.74 19.2524L21.48 16.9924ZM18.292 16.9904H18.294V16.9924L16 19.2864L13.709 16.9964L13.705 16.9924L13.709 16.9894L14.11 16.5874L14.305 16.3924L16 14.6984L18.293 16.9914L18.292 16.9904Z" fill="white"/>
</svg>
