
<svg width="124" height="27" viewBox="0 0 124 27" fill="none" xmlns="http://www.w3.org/2000/svg">
<path d="M0 17.7274L8.77677 13.7534L13.8285 16.7339L14.8491 26.5121L8.62371 26.4596L9.54219 19.662L8.47061 19.0346L3.21473 23.2179L0 17.7274Z" fill="#B4C0D3"/>
<path d="M14.3906 16.314L22.1469 22.118L25.2085 16.5232L18.9829 13.961V12.706L25.2085 10.0915L22.1469 4.54883L14.3906 10.353V16.314Z" fill="#00D3AB"/>
<path d="M13.8285 9.88287L14.8491 0.104736L8.62371 0.209285L9.54219 7.00696L8.47061 7.63443L3.16371 3.45125L0 8.88936L8.77677 12.8634L13.8285 9.88287Z" fill="#4876EF"/>
<path d="M45.9773 12.1361V21.2967H49.3278V9.62231H44.4484V12.1361H45.9773Z" fill="#4876EE"/>
<path d="M45.8729 7.9826C46.1801 8.3092 46.6478 8.47248 47.2759 8.47248C47.9044 8.47248 48.3648 8.3092 48.6578 7.9826C48.9653 7.64161 49.1186 7.2155 49.1186 6.70437C49.1186 6.17878 48.9653 5.7527 48.6578 5.4261C48.3648 5.08529 47.9044 4.91479 47.2759 4.91479C46.6478 4.91479 46.1801 5.08529 45.8729 5.4261C45.58 5.7527 45.4333 6.17878 45.4333 6.70437C45.4333 7.2155 45.58 7.64161 45.8729 7.9826Z" fill="#4876EE"/>
<path d="M34.3153 21.0411C35.2645 21.4813 36.4302 21.7016 37.8121 21.7016C39.1106 21.7016 40.2272 21.4954 41.1628 21.0837C42.0982 20.672 42.817 20.0966 43.3196 19.358C43.8363 18.6053 44.0944 17.7319 44.0944 16.7376C44.0944 15.7719 43.8505 14.9552 43.3618 14.2877C42.8868 13.606 42.2241 13.0734 41.3721 12.69C40.5205 12.2923 39.5364 12.0437 38.4195 11.9444L37.2469 11.8378C36.5488 11.7809 36.0462 11.5893 35.7391 11.2626C35.4319 10.936 35.2783 10.5524 35.2783 10.1123C35.2783 9.77126 35.3624 9.45892 35.5295 9.17486C35.6972 8.87656 35.9483 8.64227 36.2835 8.47174C36.6325 8.30142 37.0583 8.21615 37.5609 8.21615C38.0912 8.21615 38.5312 8.3155 38.8802 8.51446C38.957 8.55647 39.03 8.60141 39.0985 8.64913L39.1151 8.66095C39.1407 8.67897 39.1659 8.69766 39.1905 8.71652C39.4025 8.88138 39.5713 9.07672 39.6969 9.30264C39.8782 9.61516 39.9695 9.96304 39.9695 10.3466H43.3196C43.3196 9.32393 43.0892 8.43623 42.6288 7.68356C42.168 6.91667 41.5049 6.32728 40.6395 5.91527C39.7875 5.4892 38.7616 5.27612 37.5609 5.27612C36.416 5.27612 35.425 5.47512 34.5872 5.87273C33.7498 6.25626 33.0936 6.81015 32.619 7.53435C32.1579 8.2587 31.9276 9.11807 31.9276 10.1123C31.9276 11.4898 32.3817 12.5976 33.289 13.4357C34.1963 14.2736 35.4111 14.7564 36.9328 14.8842L38.0846 14.9907C39.0196 15.076 39.6969 15.2678 40.1158 15.5659C40.5343 15.85 40.744 16.2405 40.744 16.7376C40.744 16.9661 40.7073 17.1804 40.6336 17.3805C40.579 17.529 40.5042 17.6699 40.4091 17.803C40.1853 18.101 39.8574 18.3354 39.4247 18.5061C38.992 18.6764 38.4544 18.7615 37.8121 18.7615C37.1002 18.7615 36.5208 18.6623 36.0742 18.4631C35.6273 18.2502 35.2925 17.9733 35.0687 17.6325C34.8594 17.2915 34.755 16.9224 34.755 16.5246H31.4253C31.4253 17.533 31.6695 18.4276 32.1579 19.2088C32.6467 19.9759 33.3658 20.5865 34.3153 21.0411Z" fill="#4876EE"/>
<path d="M56.8024 21.4455C55.6436 21.4455 54.7083 21.3033 53.9964 21.0194C53.2842 20.7209 52.7608 20.2311 52.4256 19.5495C52.1046 18.8534 51.9441 17.9163 51.9441 16.7373V12.1144H50.206V9.62189H51.9441V6.46899H55.0642V9.62189H58.415V12.1144H55.0642V16.8653C55.0642 17.4192 55.2039 17.8452 55.4831 18.1433C55.7761 18.4273 56.188 18.5694 56.7187 18.5694H58.415V21.4455H56.8024Z" fill="#4876EE"/>
<path fill-rule="evenodd" clip-rule="evenodd" d="M62.4506 21.1914C63.2043 21.5321 64.0701 21.7027 65.0473 21.7027C66.0103 21.7027 66.8622 21.5321 67.6021 21.1914C68.342 20.8504 68.9563 20.3747 69.4448 19.7641C69.9335 19.1532 70.2618 18.4572 70.4289 17.6761H67.3507C67.2113 18.031 66.9459 18.3294 66.5551 18.5708C66.1642 18.8123 65.6613 18.933 65.0473 18.933C64.6668 18.933 64.3268 18.8872 64.0272 18.7957C63.7993 18.726 63.5948 18.63 63.4139 18.5072C62.995 18.2228 62.6879 17.8252 62.4924 17.314C62.4381 17.1684 62.3918 17.0161 62.3527 16.8574C62.3129 16.6967 62.2807 16.5295 62.2565 16.3553H70.6385V15.2049C70.6385 14.1397 70.415 13.1598 69.9685 12.2651C69.5215 11.3559 68.8723 10.6245 68.021 10.0707C67.1832 9.50256 66.15 9.21851 64.9214 9.21851C63.986 9.21851 63.1483 9.389 62.4084 9.72981C61.683 10.0564 61.0756 10.5038 60.5868 11.0719C60.0984 11.64 59.7214 12.2863 59.4557 13.0107C59.2046 13.7206 59.079 14.4663 59.079 15.2474V15.6735C59.079 16.4264 59.2046 17.1648 59.4557 17.8892C59.7214 18.5994 60.0984 19.2454 60.5868 19.8278C61.0894 20.3958 61.7103 20.8504 62.4506 21.1914ZM62.3143 14.2488C62.3236 14.2037 62.3333 14.1593 62.344 14.1155C62.3731 13.9951 62.4066 13.8797 62.4447 13.7694C62.4661 13.7066 62.489 13.6453 62.5135 13.5858C62.7228 13.0602 63.03 12.6626 63.4347 12.3928C63.5862 12.292 63.7501 12.21 63.9262 12.1469C64.2223 12.041 64.5544 11.988 64.9214 11.988C65.4942 11.988 65.9684 12.123 66.3455 12.3928C66.7363 12.6484 67.0297 13.0247 67.2251 13.5219C67.241 13.562 67.2559 13.6028 67.2704 13.6441C67.2936 13.71 67.315 13.7776 67.3351 13.8469C67.3645 13.95 67.3904 14.0567 67.4133 14.167C67.4299 14.2483 67.444 14.3315 67.4568 14.4167H62.2821C62.2918 14.3598 62.3025 14.3038 62.3143 14.2488Z" fill="#4876EE"/>
<path d="M72.0212 21.297V9.6226H74.6808V12.563C74.7168 12.3882 74.758 12.2204 74.804 12.0595C74.8434 11.924 74.8856 11.7933 74.932 11.6678C75.2253 10.8724 75.6649 10.276 76.2512 9.87818C76.8376 9.46636 77.5564 9.2605 78.4083 9.2605H78.5546C79.4204 9.2605 80.1392 9.46636 80.7117 9.87818C81.298 10.276 81.738 10.8724 82.031 11.6678L82.0541 11.7278L82.0739 11.7827C82.087 11.7439 82.1008 11.7057 82.1147 11.6678C82.4218 10.8724 82.8687 10.276 83.4551 9.87818C84.0414 9.46636 84.7605 9.2605 85.6121 9.2605H85.7588C86.6239 9.2605 87.3499 9.46636 87.9362 9.87818C88.5367 10.276 88.9906 10.8724 89.2974 11.6678C89.6045 12.4632 89.7585 13.4573 89.7585 14.6503V21.297H86.4077V14.4586C86.4077 13.8194 86.2403 13.3011 85.9051 12.9035C85.5841 12.5057 85.1233 12.3069 84.5232 12.3069C83.9227 12.3069 83.4481 12.5129 83.0991 12.9247C82.7501 13.3223 82.5754 13.8549 82.5754 14.5226V21.297H79.2039V14.4586C79.2039 13.8194 79.0365 13.3011 78.7013 12.9035C78.3803 12.5057 77.9265 12.3069 77.3405 12.3069C76.7258 12.3069 76.2443 12.5129 75.8953 12.9247C75.5463 13.3223 75.3716 13.8549 75.3716 14.5226V21.297H72.0212Z" fill="#4876EE"/>
<path fill-rule="evenodd" clip-rule="evenodd" d="M98.7073 19.0473V21.2966H101.367V14.1386C101.367 13.0591 101.157 12.1787 100.738 11.4968C100.32 10.8009 99.7056 10.2826 98.8958 9.94173C98.1003 9.60092 97.1158 9.43042 95.9432 9.43042C95.689 9.43042 95.4236 9.43317 95.1469 9.4388C94.9837 9.44224 94.8159 9.44654 94.6447 9.45168C94.1839 9.46593 93.737 9.48718 93.3046 9.51565L92.974 9.53831C92.8041 9.55031 92.6447 9.56214 92.4945 9.57414C92.3818 9.58307 92.2749 9.59198 92.1739 9.60092V12.477C92.6066 12.4485 93.0881 12.42 93.6187 12.3917C93.7671 12.3838 93.9141 12.3764 94.0601 12.3696C94.2711 12.3596 94.479 12.3511 94.6848 12.3435C94.8474 12.3375 95.0086 12.3322 95.1684 12.3277C95.6706 12.3135 96.0757 12.3064 96.3828 12.3064C96.9972 12.3064 97.4437 12.4555 97.7232 12.7538C98.0024 13.0521 98.1418 13.4994 98.1418 14.096V14.1386H96.0688C95.0497 14.1386 94.1493 14.2735 93.3673 14.5434C92.5855 14.799 91.9781 15.2038 91.5457 15.7576C91.1126 16.2975 90.8965 16.9934 90.8965 17.8455C90.8965 18.6267 91.0708 19.3013 91.4198 19.8693C91.7688 20.4232 92.2503 20.8493 92.8647 21.1474C93.4932 21.4458 94.2192 21.595 95.0425 21.595C95.8384 21.595 96.5084 21.4458 97.0532 21.1474C97.6115 20.8493 98.0442 20.4232 98.3514 19.8693C98.4053 19.776 98.4558 19.6793 98.5029 19.5786C98.5693 19.4364 98.6285 19.2865 98.6807 19.1299L98.7073 19.0473ZM98.1418 16.9721V16.0347H96.0477C95.4614 16.0347 95.0079 16.1837 94.6869 16.482C94.3797 16.7661 94.2258 17.1566 94.2258 17.6537C94.2258 17.8877 94.2642 18.1003 94.3406 18.2921C94.4178 18.4842 94.5329 18.6549 94.6869 18.8041C95.0079 19.0884 95.4614 19.2302 96.0477 19.2302C96.1594 19.2302 96.2673 19.2246 96.3714 19.2133C96.4565 19.2045 96.5392 19.1915 96.6191 19.175C96.7727 19.143 96.9176 19.0976 97.0532 19.0385C97.3604 18.8966 97.6115 18.6623 97.8066 18.3354C98.0024 18.0088 98.1141 17.5543 98.1418 16.9721Z" fill="#4876EE"/>
<path d="M103.372 21.2974V9.62294H106.031V13.4764C106.159 12.3764 106.48 11.4894 106.995 10.8159C107.693 9.92125 108.697 9.47388 110.01 9.47388H110.45V12.4137H109.612C108.691 12.4137 107.979 12.6693 107.476 13.1807C106.973 13.6778 106.722 14.4021 106.722 15.3536V21.2974H103.372Z" fill="#4876EE"/>
<path d="M114.699 15.8439H115.809L119.431 21.2975H123.201L118.607 14.5997L122.384 9.62313H118.866L114.699 15.1742V5.74585H111.348V21.2975H114.699V15.8439Z" fill="#4876EE"/>
</svg>
