<svg width="122" height="35" viewBox="0 0 122 35" fill="none" xmlns="http://www.w3.org/2000/svg">
<path d="M25.5444 5.63163C25.5444 8.59657 23.1911 11.0001 20.2881 11.0001C17.3851 11.0001 15.0318 8.59657 15.0318 5.63163C15.0318 2.66674 17.3851 0.263184 20.2881 0.263184C23.1911 0.263184 25.5444 2.66674 25.5444 5.63163Z" fill="#34BC85"/>
<path d="M17.4547 29.2611C7.89332 29.2611 0.142288 21.3449 0.142288 11.5796V3.09229C9.70372 3.09229 17.4552 11.0087 17.4552 20.7741L17.4547 29.2611Z" fill="#34BC85"/>
<path d="M36.4985 8.75049C26.9373 8.75049 19.1862 16.6669 19.1862 26.4323V34.9196C28.7478 34.9196 36.4985 27.003 36.4985 17.2378V8.75049Z" fill="#34BC85"/>
<path d="M68.5103 5.53833V26.8269H64.3299V12.9801L58.7455 26.8269H55.5804L49.9665 12.9801V26.8269H45.7855V5.53833H50.5337L57.163 21.3673L63.7923 5.53833H68.5103Z" fill="#0F5156"/>
<path d="M73.5696 7.91737C72.8331 7.91737 72.2156 7.68355 71.718 7.2159C71.2402 6.72787 71.0013 6.12809 71.0013 5.41642C71.0013 4.70481 71.2402 4.11516 71.718 3.64751C72.2156 3.15954 72.8331 2.91553 73.5696 2.91553C74.3061 2.91553 74.9132 3.15954 75.3911 3.64751C75.8886 4.11516 76.1379 4.70481 76.1379 5.41642C76.1379 6.12809 75.8886 6.72787 75.3911 7.2159C74.9132 7.68355 74.3061 7.91737 73.5696 7.91737ZM75.63 9.9303V26.827H71.4495V9.9303H75.63Z" fill="#0F5156"/>
<path d="M87.7335 9.68652C89.7046 9.68652 91.297 10.327 92.5118 11.6079C93.7261 12.8686 94.3333 14.6376 94.3333 16.9148V26.8272H90.1523V17.4943C90.1523 16.1523 89.824 15.1255 89.167 14.4139C88.51 13.6819 87.6141 13.3159 86.4792 13.3159C85.3247 13.3159 84.409 13.6819 83.7323 14.4139C83.0752 15.1255 82.747 16.1523 82.747 17.4943V26.8272H78.566V9.93053H82.747V12.035C83.3043 11.303 84.0112 10.7336 84.8671 10.327C85.7428 9.90003 86.6984 9.68652 87.7335 9.68652Z" fill="#0F5156"/>
<path d="M101.982 13.4377V21.6114C101.982 22.1807 102.111 22.5975 102.37 22.8619C102.648 23.1059 103.107 23.2279 103.744 23.2279H105.685V26.827H103.057C99.5333 26.827 97.771 25.0781 97.771 21.5809V13.4377H94.6688V9.93032H97.771V5.75195H101.982V9.93032V13.4377Z" fill="#0F5156"/>
<path d="M121.359 9.93042L111.116 34.8174H106.667L110.25 26.3999L103.621 9.93042H108.309L112.58 21.7335L116.91 9.93042H121.359Z" fill="#0F5156"/>
</svg>
