<svg width="121" height="32" viewBox="0 0 121 32" fill="none" xmlns="http://www.w3.org/2000/svg">
<path d="M18.9496 6.07254C18.9496 2.7475 21.6073 0.052002 24.8856 0.052002C28.1639 0.052002 30.8216 2.7475 30.8216 6.07254C30.8216 9.39758 28.1639 12.0931 24.8856 12.0931C21.6073 12.0931 18.9496 9.39758 18.9496 6.07254Z" fill="#FF2C2C"/>
<path d="M25.2458 14.7612V19.0936C25.2458 21.0132 25.2445 22.3711 25.1577 23.4321C25.0723 24.4766 24.9104 25.1131 24.6545 25.6122C24.1565 26.5845 23.3749 27.3775 22.4159 27.8826C21.9239 28.1421 21.2963 28.3064 20.2664 28.393C19.2204 28.481 17.8815 28.4823 15.9891 28.4823H12.0478C10.1552 28.4823 8.81646 28.481 7.77053 28.393C6.7404 28.3064 6.11306 28.1421 5.62086 27.8826C4.66206 27.3775 3.88029 26.5845 3.38222 25.6122C3.12655 25.1131 2.96466 24.4766 2.87908 23.4321C2.79225 22.3711 2.79116 21.0132 2.79116 19.0936V15.0964C2.79116 13.1769 2.79225 11.8191 2.87908 10.7582C2.96466 9.71345 3.12655 9.07718 3.38222 8.57798C3.88029 7.60553 4.66206 6.81262 5.62086 6.30747C6.11306 6.04815 6.7404 5.88396 7.77053 5.79719C8.81646 5.70909 10.1552 5.70802 12.0478 5.70802H16.3195C16.3576 4.77012 16.5422 3.87055 16.8506 3.03223H11.9891C10.1684 3.03219 8.7201 3.0322 7.55218 3.13056C6.35597 3.23131 5.33623 3.44216 4.4047 3.93293C2.96403 4.69196 1.78939 5.88335 1.04102 7.34454C0.557134 8.28929 0.349242 9.32355 0.249912 10.5368C0.152924 11.7213 0.152924 13.1903 0.152924 15.0369V19.1531C0.152924 20.9998 0.152924 22.4688 0.249912 23.6535C0.349242 24.8666 0.557134 25.9008 1.04102 26.8457C1.78939 28.3067 2.96403 29.4981 4.4047 30.2574C5.33623 30.748 6.35597 30.9587 7.55218 31.0597C8.7201 31.1581 10.1684 31.1581 11.989 31.1581H16.0477C17.8683 31.1581 19.3167 31.1581 20.4848 31.0597C21.6809 30.9587 22.7005 30.748 23.6322 30.2574C25.0726 29.4981 26.2473 28.3067 26.9959 26.8457C27.4797 25.9008 27.6875 24.8666 27.7871 23.6535C27.884 22.4688 27.884 20.9998 27.884 19.1535V14.2225C27.0573 14.5353 26.1705 14.7225 25.2458 14.7612Z" fill="black"/>
<path d="M47.7995 14.5309C47.7995 15.3523 47.6042 16.1224 47.2138 16.8414C46.8378 17.5602 46.2376 18.1395 45.4132 18.5796C44.6032 19.0195 43.5763 19.2395 42.3324 19.2395H39.7941V25.1367H36.7568V9.77808H42.3324C43.5041 9.77808 44.502 9.98344 45.3264 10.3942C46.1506 10.8049 46.7653 11.3696 47.1702 12.0884C47.5897 12.8072 47.7995 13.6214 47.7995 14.5309ZM42.2021 16.7532C43.0411 16.7532 43.663 16.5625 44.068 16.1811C44.473 15.785 44.6755 15.235 44.6755 14.5309C44.6755 13.0346 43.851 12.2865 42.2021 12.2865H39.7941V16.7532H42.2021Z" fill="black"/>
<path d="M52.1255 14.8394C52.5159 14.1939 53.0222 13.6878 53.6441 13.3211C54.2803 12.9544 55.0035 12.771 55.8134 12.771V16.0055H55.0107C54.0563 16.0055 53.3331 16.2329 52.8414 16.6876C52.3639 17.1425 52.1255 17.9345 52.1255 19.0641V25.1371H49.0882V12.947H52.1255V14.8394Z" fill="black"/>
<path d="M62.329 25.3352C61.1722 25.3352 60.1307 25.0783 59.205 24.5649C58.2793 24.0367 57.5492 23.2962 57.014 22.3426C56.4933 21.389 56.2331 20.2889 56.2331 19.042C56.2331 17.7951 56.5005 16.695 57.0357 15.7415C57.5852 14.788 58.3301 14.0546 59.2703 13.5412C60.2102 13.0131 61.2589 12.749 62.4161 12.749C63.573 12.749 64.6217 13.0131 65.5619 13.5412C66.5017 14.0546 67.2395 14.788 67.7747 15.7415C68.3241 16.695 68.5991 17.7951 68.5991 19.042C68.5991 20.2889 68.3168 21.389 67.7529 22.3426C67.2032 23.2962 66.4513 24.0367 65.4966 24.5649C64.5564 25.0783 63.5007 25.3352 62.329 25.3352ZM62.329 22.6507C62.8788 22.6507 63.3922 22.5185 63.8694 22.2546C64.3611 21.976 64.7519 21.5653 65.0411 21.0224C65.3304 20.4796 65.4748 19.8197 65.4748 19.042C65.4748 17.8831 65.1711 16.9957 64.5636 16.3796C63.9707 15.7489 63.2402 15.4335 62.3726 15.4335C61.5049 15.4335 60.7745 15.7489 60.1815 16.3796C59.6028 16.9957 59.3135 17.8831 59.3135 19.042C59.3135 20.201 59.5955 21.0957 60.1598 21.7265C60.7382 22.3426 61.4614 22.6507 62.329 22.6507Z" fill="black"/>
<path d="M69.1799 18.9985C69.1799 17.7663 69.4184 16.6733 69.8959 15.7199C70.3876 14.7664 71.0528 14.0329 71.8917 13.5195C72.7307 13.0061 73.6633 12.7494 74.6902 12.7494C75.4715 12.7494 76.2161 12.9254 76.9248 13.2775C77.6335 13.6148 78.1978 14.0696 78.6169 14.6417V8.85474H81.6977V25.1375H78.6169V23.333C78.241 23.9344 77.713 24.4187 77.0333 24.7853C76.3536 25.1522 75.5655 25.3355 74.6685 25.3355C73.656 25.3355 72.7307 25.0712 71.8917 24.5434C71.0528 24.0153 70.3876 23.2745 69.8959 22.3209C69.4184 21.3529 69.1799 20.2451 69.1799 18.9985ZM78.6387 19.0424C78.6387 18.2941 78.4942 17.6563 78.205 17.1282C77.9155 16.5853 77.525 16.1746 77.0333 15.8959C76.5416 15.6025 76.0136 15.4558 75.4497 15.4558C74.8855 15.4558 74.3647 15.5952 73.8875 15.8739C73.4104 16.1526 73.0199 16.5633 72.7162 17.1061C72.427 17.6342 72.2822 18.265 72.2822 18.9985C72.2822 19.7317 72.427 20.3772 72.7162 20.9348C73.0199 21.4773 73.4104 21.8954 73.8875 22.1887C74.3792 22.4824 74.9 22.6289 75.4497 22.6289C76.0136 22.6289 76.5416 22.4898 77.0333 22.2108C77.525 21.9175 77.9155 21.5068 78.205 20.9786C78.4942 20.4361 78.6387 19.7906 78.6387 19.0424Z" fill="black"/>
<path d="M95.1413 12.9475V25.1376H92.0823V23.5973C91.6918 24.1255 91.1783 24.5436 90.5419 24.8516C89.9199 25.1449 89.2402 25.2914 88.5025 25.2914C87.5626 25.2914 86.7309 25.0934 86.0077 24.6974C85.2845 24.2867 84.7133 23.6927 84.2939 22.915C83.8889 22.123 83.6864 21.1841 83.6864 20.0987V12.9475H86.7237V19.6586C86.7237 20.6269 86.9621 21.3748 87.4396 21.9029C87.9168 22.4163 88.5678 22.6732 89.3919 22.6732C90.2309 22.6732 90.8891 22.4163 91.3663 21.9029C91.8435 21.3748 92.0823 20.6269 92.0823 19.6586V12.9475H95.1413Z" fill="black"/>
<path d="M96.4908 19.042C96.4908 17.7804 96.7441 16.6803 97.2503 15.7415C97.7565 14.788 98.458 14.0546 99.3547 13.5412C100.251 13.0131 101.278 12.749 102.435 12.749C103.925 12.749 105.154 13.1304 106.123 13.8932C107.107 14.6413 107.765 15.6975 108.097 17.0616H104.822C104.648 16.5336 104.351 16.1229 103.932 15.8295C103.527 15.5215 103.021 15.3675 102.414 15.3675C101.546 15.3675 100.859 15.6902 100.353 16.3356C99.8463 16.9663 99.5931 17.8687 99.5931 19.042C99.5931 20.201 99.8463 21.1031 100.353 21.7486C100.859 22.3794 101.546 22.6948 102.414 22.6948C103.643 22.6948 104.445 22.1372 104.822 21.0224H108.097C107.765 22.3426 107.107 23.3915 106.123 24.1688C105.14 24.9465 103.911 25.3352 102.435 25.3352C101.278 25.3352 100.251 25.0783 99.3547 24.5649C98.458 24.0367 97.7565 23.3036 97.2503 22.3647C96.7441 21.4111 96.4908 20.3037 96.4908 19.042Z" fill="black"/>
<path d="M112.989 15.477V21.3739C112.989 21.7846 113.083 22.0853 113.271 22.2763C113.473 22.4522 113.806 22.5402 114.269 22.5402H115.679V25.1367H113.769C111.21 25.1367 109.93 23.875 109.93 21.3521V15.477H108.498V12.9466H109.93V9.93213H112.989V12.9466H115.679V15.477H112.989Z" fill="black"/>
<path d="M118.342 25.2915C117.792 25.2915 117.337 25.1226 116.975 24.7854C116.628 24.4332 116.454 24.0004 116.454 23.487C116.454 22.9736 116.628 22.5481 116.975 22.211C117.337 21.8588 117.792 21.6829 118.342 21.6829C118.877 21.6829 119.318 21.8588 119.665 22.211C120.012 22.5481 120.186 22.9736 120.186 23.487C120.186 24.0004 120.012 24.4332 119.665 24.7854C119.318 25.1226 118.877 25.2915 118.342 25.2915Z" fill="#FF2C2C"/>
</svg>
