<svg width="95" height="29" viewBox="0 0 95 29" fill="none" xmlns="http://www.w3.org/2000/svg">
<path d="M44.696 17.4911V27.2139H47.7888V16.8593C47.7888 15.5489 47.5139 14.3906 46.9642 13.3844C46.4143 12.3782 45.6583 11.5943 44.696 11.0327C43.7565 10.4711 42.6683 10.1903 41.4311 10.1903C40.1938 10.1903 39.0825 10.4828 38.0975 11.0678C37.3555 11.4908 36.7369 12.0334 36.2416 12.6954V2.15234H33.1488V27.2139H36.2416V17.4911C36.2416 16.6487 36.4248 15.8999 36.7915 15.2447C37.158 14.5895 37.662 14.0747 38.3038 13.7003C38.9452 13.3259 39.6784 13.1387 40.5033 13.1387C41.7402 13.1387 42.7484 13.5482 43.5274 14.3672C44.3065 15.1862 44.696 16.2275 44.696 17.4911Z" fill="black"/>
<path d="M53.214 26.6519C54.2908 27.2605 55.505 27.5646 56.8568 27.5646C58.2313 27.5646 59.4344 27.2605 60.4654 26.6519C61.5191 26.0201 62.344 25.1543 62.9399 24.0545C63.5354 22.9547 63.8331 21.6794 63.8331 20.2286V10.541H60.7403V20.0884C60.7403 21.469 60.3967 22.5568 59.7091 23.3525C59.0218 24.1249 58.0712 24.5108 56.8568 24.5108C56.0549 24.5108 55.3562 24.3353 54.7604 23.9844C54.1645 23.6334 53.7063 23.1302 53.3858 22.4751C53.0877 21.7964 52.939 21.0007 52.939 20.0884V10.541H49.8459V20.2286C49.8459 21.6794 50.1436 22.9547 50.7395 24.0545C51.335 25.1543 52.1599 26.0201 53.214 26.6519Z" fill="black"/>
<path fill-rule="evenodd" clip-rule="evenodd" d="M73.8213 27.5648C72.1945 27.5648 70.7282 27.1905 69.4223 26.4417C68.1164 25.6693 67.0851 24.628 66.3291 23.3178C65.5732 22.0073 65.195 20.5213 65.195 18.8598C65.195 17.2219 65.5618 15.7477 66.295 14.4373C67.0509 13.1269 68.0591 12.0973 69.3191 11.3485C70.6022 10.5763 72.0341 10.1902 73.615 10.1902C75.1272 10.1902 76.4559 10.5412 77.6014 11.2432C78.77 11.9452 79.675 12.9163 80.3164 14.1565C80.9809 15.3967 81.3132 16.8007 81.3132 18.3686C81.3132 18.6026 81.3018 18.8598 81.2787 19.1407C81.2559 19.3982 81.21 19.7024 81.1414 20.0533H68.3572C68.4662 20.7028 68.6608 21.2994 68.941 21.8434C69.3992 22.7093 70.0523 23.3879 70.9 23.8792C71.7477 24.3471 72.7214 24.5811 73.8213 24.5811C74.7377 24.5811 75.574 24.4176 76.33 24.0899C77.1091 23.7622 77.7732 23.2709 78.3232 22.6155L80.3164 24.6865C79.5377 25.6224 78.5754 26.3363 77.4296 26.8276C76.3072 27.3191 75.1041 27.5648 73.8213 27.5648ZM68.9068 15.7711C68.65 16.2681 68.4688 16.818 68.3637 17.4208H78.2985C78.2142 16.7307 78.0391 16.1224 77.7732 15.5956C77.384 14.8 76.8341 14.1916 76.1237 13.7704C75.4136 13.3258 74.5545 13.1035 73.5463 13.1035C72.4923 13.1035 71.5645 13.3375 70.7624 13.8055C69.9605 14.2735 69.3419 14.9287 68.9068 15.7711Z" fill="black"/>
<path d="M83.3109 26.1609C83.9982 26.6052 84.7431 26.9565 85.5449 27.2138C86.3695 27.4478 87.2404 27.5648 88.1568 27.5648C89.9895 27.5648 91.4445 27.1084 92.5213 26.1957C93.6212 25.2834 94.1709 24.043 94.1709 22.4753C94.1709 21.4456 93.9532 20.615 93.5181 19.9832C93.1054 19.3514 92.5672 18.8482 91.9027 18.4739C91.2382 18.0994 90.5395 17.8069 89.8063 17.5965C89.0731 17.3623 88.3631 17.14 87.6755 16.9294C87.0113 16.7188 86.4727 16.4614 86.0604 16.1572C85.6481 15.853 85.4418 15.4201 85.4418 14.8585C85.4418 14.2969 85.6709 13.864 86.1291 13.5598C86.6104 13.2322 87.2976 13.0684 88.1913 13.0684C89.039 13.0684 89.7949 13.2322 90.4594 13.5598C91.1467 13.8874 91.7195 14.3554 92.1777 14.9638L94.1709 12.928C93.5295 12.0154 92.7045 11.3368 91.6967 10.8922C90.7113 10.4242 89.5772 10.1902 88.2941 10.1902C87.0799 10.1902 86.0373 10.3891 85.1668 10.7869C84.3191 11.1847 83.6546 11.758 83.1736 12.5068C82.6923 13.2322 82.4518 14.098 82.4518 15.1042C82.4518 16.1104 82.6581 16.9177 83.0704 17.5261C83.5058 18.1346 84.0555 18.6142 84.72 18.9652C85.3845 19.3161 86.0832 19.6086 86.8163 19.8426C87.5726 20.0533 88.2827 20.2757 88.9472 20.5097C89.6117 20.7204 90.15 21.0009 90.5623 21.3522C90.9977 21.6796 91.2154 22.1476 91.2154 22.7561C91.2154 23.3643 90.9518 23.8443 90.4249 24.1953C89.8981 24.5226 89.1535 24.6865 88.1913 24.6865C87.229 24.6865 86.3582 24.511 85.5791 24.16C84.8004 23.7858 84.1127 23.2241 83.5172 22.4753L81.524 24.511C82.0281 25.1428 82.6236 25.6929 83.3109 26.1609Z" fill="black"/>
<path d="M91.2756 4.94336V5.56541H90.5425V7.45793H89.8464V5.56541H89.1132V4.94336H91.2756Z" fill="black"/>
<path d="M94.1331 4.90527V7.46887H93.4373V6.22476L92.9274 6.80912H92.7188L92.2089 6.22476V7.46887H91.5131V4.90527H91.7588L92.8233 5.99855L93.8877 4.90527H94.1331Z" fill="black"/>
<path d="M3.48691 9.03437C4.45012 12.1886 7.73454 13.9481 10.8229 12.9644C13.9112 11.9806 21.226 6.84492 20.2628 3.69072C19.2995 0.536484 10.4232 0.558154 7.33485 1.54189C4.2465 2.52565 2.52372 5.88014 3.48691 9.03437Z" fill="url(#paint0_radial_656_499)"/>
<path d="M1.62057 26.3303C3.43327 28.1819 6.37192 28.1819 8.18462 26.3303C9.99731 24.4791 13.2792 18.1256 11.4668 16.2741C9.65412 14.4229 3.43327 17.775 1.62057 19.6262C-0.192127 21.4775 -0.192127 24.4791 1.62057 26.3303Z" fill="url(#paint1_radial_656_499)"/>
<path d="M18.9656 28.1508C22.0907 29.006 25.3026 27.1118 26.1399 23.9205C26.9769 20.7288 26.6388 11.6698 23.5141 10.8146C20.389 9.95948 15.6613 17.6321 14.8239 20.8235C13.9865 24.0149 15.8409 27.2956 18.9656 28.1508Z" fill="url(#paint2_linear_656_499)"/>
<defs>
<radialGradient id="paint0_radial_656_499" cx="0" cy="0" r="1" gradientUnits="userSpaceOnUse" gradientTransform="translate(20.3431 3.54185) rotate(162.414) scale(24.7499 35.8756)">
<stop stop-color="#3E96F7"/>
<stop offset="0.48585" stop-color="#9301FF"/>
<stop offset="0.71428" stop-color="#CC01FE"/>
</radialGradient>
<radialGradient id="paint1_radial_656_499" cx="0" cy="0" r="1" gradientUnits="userSpaceOnUse" gradientTransform="translate(12.9824 15.581) rotate(146.366) scale(21.3017 49.7921)">
<stop offset="0.0977501" stop-color="#D730A2"/>
<stop offset="0.467786" stop-color="#FD291C"/>
<stop offset="0.700031" stop-color="#FCA13D"/>
</radialGradient>
<linearGradient id="paint2_linear_656_499" x1="22.0942" y1="11.4266" x2="22.0942" y2="28.5433" gradientUnits="userSpaceOnUse">
<stop stop-color="#9F58EE"/>
<stop offset="1" stop-color="#56F77C"/>
</linearGradient>
</defs>
</svg>
