<svg width="131" height="25" viewBox="0 0 131 25" fill="none" xmlns="http://www.w3.org/2000/svg">
<path d="M42.5287 21.5771C40.6606 21.5771 39.0092 21.2038 37.5745 20.4574C36.1398 19.6936 35.0307 18.616 34.2467 17.2244C33.4627 15.8329 33.0707 14.1953 33.0707 12.3116C33.0707 10.4279 33.4627 8.79033 34.2467 7.3988C35.0307 5.99026 36.1398 4.91269 37.5745 4.16601C39.0092 3.40235 40.6606 3.02051 42.5287 3.02051C43.7965 3.02051 44.9142 3.15629 45.8816 3.42781C46.866 3.68237 47.7666 4.08963 48.5838 4.64965V8.34063C47.8501 7.7297 47.0078 7.28848 46.0569 7.01696C45.1227 6.72846 44.0553 6.58423 42.8542 6.58423C41.7366 6.58423 40.7271 6.82181 39.8264 7.29697C38.9424 7.75515 38.2419 8.41697 37.7248 9.28247C37.2076 10.1479 36.9489 11.1576 36.9489 12.3116C36.9489 13.4825 37.1825 14.5092 37.6495 15.3917C38.1334 16.2572 38.8088 16.9275 39.6762 17.4026C40.5436 17.8778 41.5446 18.1154 42.6789 18.1154C43.7131 18.1154 44.6137 17.9287 45.3811 17.5553V14.1189H42.5538V11.268H49.0592V19.8464C47.4079 21.0003 45.2313 21.5771 42.5287 21.5771Z" fill="#196D3A"/>
<path d="M49.938 8.97697H53.5911V10.7334C54.075 10.1394 54.7504 9.68971 55.6178 9.38428C56.4852 9.06183 57.4696 8.90063 58.5703 8.90063V11.828C57.4194 11.828 56.4018 12.0061 55.5178 12.3625C54.6504 12.7189 54.0499 13.2619 53.7162 13.9916V21.1956H49.938V8.97697Z" fill="#196D3A"/>
<path d="M65.8314 21.5774C63.5293 21.5774 61.7192 21.0175 60.4015 19.8974C59.0838 18.7605 58.4249 17.1738 58.4249 15.1374C58.4249 13.1179 59.0088 11.5228 60.1763 10.3519C61.3608 9.1809 63.0454 8.59546 65.2309 8.59546C66.6652 8.59546 67.8829 8.86698 68.8839 9.40999C69.8845 9.95304 70.6438 10.7082 71.1609 11.6755C71.678 12.6258 71.9364 13.7034 71.9364 14.9083V16.4611H62.0281C62.295 18.0223 63.7293 18.8029 66.3315 18.8029C67.0989 18.8029 67.8914 18.7351 68.7086 18.5993C69.5261 18.4635 70.2352 18.2768 70.8357 18.0393V20.7374C70.2518 20.992 69.501 21.1959 68.5834 21.3483C67.6662 21.5011 66.7486 21.5774 65.8314 21.5774ZM68.3583 13.9665C68.3085 13.1519 68.008 12.524 67.4577 12.0828C66.9073 11.6246 66.1481 11.3955 65.1807 11.3955C64.2298 11.3955 63.4791 11.6246 62.9287 12.0828C62.3784 12.541 62.078 13.1689 62.0281 13.9665H68.3583Z" fill="#196D3A"/>
<path d="M79.68 21.5774C77.3782 21.5774 75.5681 21.0175 74.2504 19.8974C72.9327 18.7605 72.2735 17.1738 72.2735 15.1374C72.2735 13.1179 72.8574 11.5228 74.0253 10.3519C75.2094 9.1809 76.8943 8.59546 79.0794 8.59546C80.5141 8.59546 81.7318 8.86698 82.7328 9.40999C83.7335 9.95304 84.4924 10.7082 85.0095 11.6755C85.5266 12.6258 85.7853 13.7034 85.7853 14.9083V16.4611H75.8767C76.1436 18.0223 77.5783 18.8029 80.1805 18.8029C80.9478 18.8029 81.7403 18.7351 82.5575 18.5993C83.3747 18.4635 84.0838 18.2768 84.6843 18.0393V20.7374C84.1004 20.992 83.35 21.1959 82.4324 21.3483C81.5148 21.5011 80.5976 21.5774 79.68 21.5774ZM82.2072 13.9665C82.157 13.1519 81.8569 12.524 81.3066 12.0828C80.7559 11.6246 79.997 11.3955 79.0296 11.3955C78.0788 11.3955 77.328 11.6246 76.7777 12.0828C76.227 12.541 75.9269 13.1689 75.8767 13.9665H82.2072Z" fill="#196D3A"/>
<path d="M86.6246 8.97702H90.2776V10.4789C90.8283 9.851 91.4787 9.38433 92.2295 9.07886C92.9968 8.75642 93.7974 8.59521 94.6316 8.59521C96.2664 8.59521 97.484 9.04491 98.2846 9.94431C99.1018 10.8268 99.5108 12.0232 99.5108 13.5335V21.1956H95.7323V13.9662C95.7323 12.388 95.0151 11.5989 93.5804 11.5989C92.9466 11.5989 92.3546 11.7601 91.8039 12.0826C91.2535 12.388 90.7866 12.8462 90.4027 13.4571V21.1956H86.6246V8.97702Z" fill="#196D3A"/>
<path d="M102.843 7.09368C102.26 7.09368 101.768 6.89853 101.367 6.5082C100.967 6.1179 100.767 5.62577 100.767 5.0318C100.767 4.45485 100.967 3.9712 101.367 3.58087C101.768 3.1736 102.26 2.96997 102.843 2.96997C103.427 2.96997 103.919 3.1736 104.32 3.58087C104.72 3.9712 104.92 4.45485 104.92 5.0318C104.92 5.62577 104.72 6.1179 104.32 6.5082C103.919 6.89853 103.427 7.09368 102.843 7.09368ZM100.942 8.97734H104.745V21.1959H100.942V8.97734Z" fill="#196D3A"/>
<path d="M111.189 21.5771C110.289 21.5771 109.321 21.4754 108.287 21.2718C107.27 21.0852 106.469 20.8137 105.885 20.4574V17.4536C106.552 17.8608 107.353 18.1918 108.287 18.4463C109.221 18.7009 110.089 18.8281 110.889 18.8281C111.573 18.8281 112.074 18.7688 112.391 18.6499C112.708 18.5311 112.866 18.3105 112.866 17.9881C112.866 17.7336 112.774 17.5299 112.591 17.3772C112.407 17.2075 112.124 17.0632 111.74 16.9445C111.373 16.8087 110.756 16.6135 109.888 16.359C108.871 16.0536 108.07 15.7481 107.487 15.4426C106.919 15.1202 106.486 14.7214 106.185 14.2462C105.902 13.7711 105.76 13.1601 105.76 12.4135C105.76 11.1407 106.252 10.1904 107.236 9.5625C108.237 8.91762 109.588 8.59521 111.29 8.59521C112.124 8.59521 112.983 8.68853 113.867 8.87522C114.768 9.04491 115.46 9.27401 115.944 9.5625V12.4898C115.46 12.1674 114.826 11.9043 114.042 11.7007C113.275 11.4971 112.524 11.3952 111.79 11.3952C111.106 11.3952 110.572 11.4631 110.189 11.5989C109.822 11.7347 109.638 11.9892 109.638 12.3626C109.638 12.685 109.813 12.931 110.164 13.1008C110.531 13.2705 111.206 13.4826 112.19 13.7371L112.691 13.8644C113.742 14.1529 114.559 14.4753 115.143 14.8317C115.727 15.1711 116.135 15.5868 116.369 16.079C116.619 16.5541 116.744 17.1566 116.744 17.8863C116.744 19.0064 116.269 19.9058 115.318 20.5847C114.367 21.2463 112.991 21.5771 111.189 21.5771Z" fill="#196D3A"/>
<path d="M117.618 2.38403H121.396V10.3769C121.964 9.78297 122.606 9.34175 123.323 9.05326C124.04 8.74779 124.808 8.59507 125.625 8.59507C127.26 8.59507 128.478 9.04477 129.278 9.94417C130.095 10.8266 130.504 12.023 130.504 13.5334V21.1955H126.726V13.9661C126.726 12.3878 126.009 11.5988 124.574 11.5988C123.94 11.5988 123.348 11.76 122.798 12.0824C122.247 12.3879 121.78 12.8461 121.396 13.457V21.1955H117.618V2.38403Z" fill="#196D3A"/>
<path fill-rule="evenodd" clip-rule="evenodd" d="M20.1664 5.98575C20.1664 9.21919 17.59 11.8404 14.4116 11.8404C11.2332 11.8404 8.65667 9.21919 8.65667 5.98575C8.65667 2.75232 11.2332 0.131104 14.4116 0.131104C17.59 0.131104 20.1664 2.75232 20.1664 5.98575ZM1.02516 11.4149C7.29504 10.985 12.7594 15.7606 13.2684 22.1527C13.3212 22.8151 13.3186 23.4688 13.2648 24.1098C6.99488 24.5397 1.5305 19.7641 1.0215 13.3721C0.968796 12.7097 0.971306 12.0558 1.02516 11.4149ZM17.3215 23.886C23.6046 23.3682 28.2989 17.8091 27.8763 11.4306C27.2462 11.3758 26.6036 11.3732 25.9525 11.4269C19.6692 11.9447 14.9751 17.5037 15.3977 23.8822C16.0276 23.9371 16.6704 23.9397 17.3215 23.886Z" fill="#196D3A"/>
</svg>
