<svg width="81" height="28" viewBox="0 0 81 28" fill="none" xmlns="http://www.w3.org/2000/svg">
<path d="M26.2988 24.5507C26.2988 24.9454 26.6124 25.2657 26.9988 25.2657H29.5945C29.981 25.2657 30.2946 24.9454 30.2946 24.5507V3.92566C30.2946 3.53078 29.981 3.21069 29.5945 3.21069H26.9988C26.6124 3.21069 26.2988 3.53078 26.2988 3.92566V24.5507Z" fill="#FF666A"/>
<path fill-rule="evenodd" clip-rule="evenodd" d="M36.1668 24.6204C37.3716 25.3507 38.772 25.7157 40.3681 25.7157C41.9547 25.7157 43.3502 25.3557 44.5549 24.6354C45.7691 23.9054 46.7142 22.9002 47.3901 21.6197C48.0754 20.3294 48.4184 18.8441 48.4184 17.1637C48.4184 15.4934 48.0803 14.018 47.4048 12.7377C46.7289 11.4474 45.7838 10.4372 44.5696 9.70707C43.3649 8.97688 41.9645 8.61182 40.3681 8.61182C38.8014 8.61182 37.4157 8.97191 36.2109 9.69206C35.0065 10.4122 34.0611 11.4174 33.3758 12.7077C32.6901 13.988 32.3474 15.4733 32.3474 17.1637C32.3474 18.8341 32.6803 20.3145 33.3464 21.6047C34.0223 22.8851 34.9624 23.8904 36.1668 24.6204ZM43.2326 20.5845C42.6061 21.4647 41.6512 21.9048 40.3681 21.9048C39.1244 21.9048 38.1794 21.4797 37.5329 20.6295C36.8966 19.7693 36.5781 18.614 36.5781 17.1637C36.5781 16.2235 36.7104 15.3983 36.9747 14.6882C37.2491 13.978 37.6652 13.4229 38.2235 13.0228C38.7818 12.6227 39.4965 12.4227 40.3681 12.4227C41.6316 12.4227 42.5815 12.8528 43.2179 13.713C43.8644 14.5732 44.1874 15.7234 44.1874 17.1637C44.1874 18.554 43.8693 19.6943 43.2326 20.5845Z" fill="#FF666A"/>
<path fill-rule="evenodd" clip-rule="evenodd" d="M54.5879 25.7157C53.4518 25.7157 52.4872 25.4955 51.694 25.0554C50.9107 24.6054 50.3132 24.0101 49.9019 23.2702C49.5001 22.5198 49.2996 21.6948 49.2996 20.7945C49.2996 20.0444 49.4123 19.3592 49.6373 18.7391C49.8627 18.1189 50.225 17.5738 50.7245 17.1037C51.2337 16.6236 51.9142 16.2235 52.7665 15.9034C53.3538 15.6834 54.0542 15.4884 54.8669 15.3183C55.68 15.1483 56.6005 14.9882 57.6289 14.8382C58.2341 14.744 58.8749 14.6446 59.5512 14.54C59.4752 13.872 59.2607 13.3613 58.9068 13.0078C58.4563 12.5577 57.702 12.3326 56.6446 12.3326C56.057 12.3326 55.4448 12.4777 54.8081 12.7677C54.1718 13.0578 53.7262 13.5729 53.4714 14.3131L49.8578 13.1428C50.2593 11.8025 51.0132 10.7123 52.12 9.87209C53.2267 9.0319 54.735 8.61182 56.6446 8.61182C58.0451 8.61182 59.2887 8.83185 60.3758 9.27194C61.463 9.71204 62.2855 10.4722 62.8438 11.5525C63.157 12.1526 63.3432 12.7528 63.402 13.3529C63.4605 13.953 63.4899 14.6232 63.4899 15.3633V25.2656H59.9939V23.2766C59.3625 24.0359 58.6919 24.6089 57.9813 24.9954C57.0902 25.4755 55.959 25.7157 54.5879 25.7157ZM55.4399 22.5048C56.1746 22.5048 56.7913 22.3749 57.2908 22.1148C57.8 21.8448 58.2015 21.5397 58.4955 21.1996C58.799 20.8596 59.0048 20.5745 59.1123 20.3444C59.3181 19.9043 59.4357 19.3942 59.4651 18.8141C59.4889 18.4545 59.5053 18.1321 59.5148 17.8468C58.8567 17.9616 58.2918 18.064 57.8196 18.154C57.0853 18.284 56.4927 18.404 56.0423 18.514C55.5918 18.6241 55.1952 18.7441 54.8522 18.8741C54.4605 19.0342 54.1424 19.2092 53.8974 19.3992C53.6625 19.5793 53.4861 19.7793 53.3685 19.9994C53.261 20.2194 53.2071 20.4645 53.2071 20.7345C53.2071 21.1046 53.2953 21.4247 53.4714 21.6948C53.6576 21.9548 53.917 22.1548 54.2502 22.2949C54.583 22.4351 54.9796 22.5048 55.4399 22.5048Z" fill="#FF666A"/>
<path fill-rule="evenodd" clip-rule="evenodd" d="M68.4406 24.5903C69.5372 25.3406 70.8154 25.7156 72.2746 25.7156C73.8511 25.7156 75.1686 25.3406 76.2263 24.5903C76.3418 24.5081 76.4545 24.423 76.5641 24.3343V25.2656H80.0898V3.66064H76.0646V9.58439C75.0772 8.93595 73.8823 8.61175 72.4801 8.61175C70.9621 8.61175 69.6401 8.98181 68.5141 9.72198C67.3877 10.4622 66.5113 11.4774 65.8844 12.7677C65.2673 14.048 64.959 15.5133 64.959 17.1637C64.959 18.784 65.2624 20.2393 65.8697 21.5296C66.4868 22.82 67.3436 23.8403 68.4406 24.5903ZM76.5641 17.1637C76.5641 18.1439 76.4465 19.0041 76.2116 19.7442C75.9764 20.4844 75.5896 21.0596 75.051 21.4696C74.5221 21.8797 73.8122 22.0848 72.9208 22.0848C72.059 22.0848 71.3541 21.8647 70.8056 21.4246C70.2571 20.9845 69.8508 20.3944 69.5862 19.6542C69.3219 18.904 69.1896 18.0739 69.1896 17.1637C69.1896 16.2635 69.3268 15.4433 69.6009 14.7031C69.8753 13.9529 70.2963 13.3578 70.8644 12.9177C71.4419 12.4676 72.1766 12.2426 73.0678 12.2426C73.9001 12.2426 74.5711 12.4476 75.0804 12.8577C75.5994 13.2678 75.9764 13.8429 76.2116 14.5831C76.4465 15.3232 76.5641 16.1835 76.5641 17.1637Z" fill="#FF666A"/>
<path d="M0.0732422 5.42214C0.0732422 3.85912 0.0732417 3.07759 0.37107 2.48063C0.633057 1.95549 1.05108 1.52854 1.56525 1.26097C2.14978 0.956787 2.91495 0.956787 4.44532 0.956787H15.922C16.7965 0.956787 17.2338 0.956787 17.5676 1.13059C17.8616 1.28349 18.1003 1.52747 18.2502 1.82754C18.4203 2.16869 18.4203 2.61526 18.4203 3.50843V23.2037C18.4203 24.7669 18.4203 25.5484 18.1224 26.1454C17.8606 26.6705 17.4427 27.0974 16.9284 27.3648C16.3438 27.669 15.5787 27.669 14.0483 27.669H4.44532C2.91495 27.669 2.14978 27.669 1.56525 27.3648C1.05108 27.0974 0.633057 26.6705 0.37107 26.1454C0.0732417 25.5484 0.0732422 24.7669 0.0732422 23.2037V5.42214Z" fill="#FBDAD3"/>
<path d="M8.40145 15.7593C8.81422 15.16 9.6817 15.16 10.0945 15.7593L15.4976 23.6036C15.9819 24.3068 15.4911 25.277 14.6511 25.277H3.8448C3.00483 25.277 2.51401 24.3068 2.99829 23.6036L8.40145 15.7593Z" fill="url(#paint0_linear_656_463)"/>
<path d="M10.0945 12.8672C9.68168 13.4665 8.81421 13.4665 8.40143 12.8672L2.99831 5.02274C2.51399 4.31961 3.00482 3.34937 3.84482 3.34937H14.6511C15.4911 3.34937 15.9819 4.31961 15.4976 5.02274L10.0945 12.8672Z" fill="url(#paint1_linear_656_463)"/>
<defs>
<linearGradient id="paint0_linear_656_463" x1="9.24796" y1="18.4993" x2="9.24796" y2="21.4895" gradientUnits="userSpaceOnUse">
<stop stop-color="#FFC0A2"/>
<stop offset="1" stop-color="#FDA67B"/>
</linearGradient>
<linearGradient id="paint1_linear_656_463" x1="9.24795" y1="7.33627" x2="9.24795" y2="10.5258" gradientUnits="userSpaceOnUse">
<stop stop-color="#FFC0A2"/>
<stop offset="1" stop-color="#FDA67B"/>
</linearGradient>
</defs>
</svg>
