<svg width="119" height="32" viewBox="0 0 119 32" fill="none" xmlns="http://www.w3.org/2000/svg">
<path d="M44.8384 25.8391C42.9681 25.8391 41.3339 25.4029 39.9362 24.5302C38.538 23.6575 37.4518 22.4456 36.6774 20.8941C35.9027 19.3235 35.5154 17.5006 35.5154 15.4257C35.5154 13.3313 35.912 11.4891 36.7057 9.899C37.518 8.28946 38.6611 7.03869 40.1343 6.14669C41.6269 5.23527 43.3934 4.77954 45.4335 4.77954C47.7573 4.77954 49.6841 5.35162 51.2145 6.49573C52.7446 7.63985 53.7364 9.22027 54.1899 11.237H50.1376C49.8353 10.2868 49.2874 9.54996 48.4941 9.02635C47.7004 8.48339 46.6804 8.21192 45.4335 8.21192C43.4499 8.21192 41.9198 8.86154 40.8428 10.1608C39.7659 11.4407 39.2276 13.2053 39.2276 15.4548C39.2276 17.7042 39.7566 19.4494 40.8146 20.6907C41.8915 21.9122 43.3462 22.5231 45.1785 22.5231C46.9733 22.5231 48.3238 22.0285 49.2309 21.0395C50.1565 20.0313 50.7138 18.7126 50.9026 17.0837H45.887V14.2913H54.5583V25.4899H51.2145L50.9309 22.8139C50.2889 23.7835 49.4859 24.5302 48.5223 25.0538C47.5588 25.5773 46.3309 25.8391 44.8384 25.8391Z" fill="black"/>
<path d="M56.5825 25.4897V4.54663H60.2096V25.4897H56.5825Z" fill="black"/>
<path d="M69.2434 25.839C67.8832 25.839 66.6553 25.5192 65.5594 24.8793C64.4828 24.2394 63.6233 23.3568 62.9809 22.2322C62.3575 21.0879 62.0457 19.7694 62.0457 18.2762C62.0457 16.783 62.3668 15.4741 63.0092 14.3493C63.6516 13.2052 64.5111 12.3132 65.588 11.6733C66.6835 11.0333 67.9114 10.7134 69.2716 10.7134C70.6129 10.7134 71.8222 11.0333 72.8991 11.6733C73.9946 12.3132 74.8541 13.2052 75.4775 14.3493C76.1199 15.4741 76.4411 16.783 76.4411 18.2762C76.4411 19.7694 76.1199 21.0879 75.4775 22.2322C74.8541 23.3568 73.9946 24.2394 72.8991 24.8793C71.8032 25.5192 70.5846 25.839 69.2434 25.839ZM69.2434 22.6104C70.188 22.6104 71.0099 22.2517 71.7088 21.5339C72.4077 20.7971 72.7571 19.7111 72.7571 18.2762C72.7571 16.8412 72.4077 15.765 71.7088 15.0475C71.0099 14.3106 70.1973 13.9421 69.2716 13.9421C68.3084 13.9421 67.4772 14.3106 66.778 15.0475C66.098 15.765 65.7579 16.8412 65.7579 18.2762C65.7579 19.7111 66.098 20.7971 66.778 21.5339C67.4772 22.2517 68.2988 22.6104 69.2434 22.6104Z" fill="black"/>
<path d="M84.0764 25.839C82.8296 25.839 81.734 25.6352 80.7894 25.2281C79.8448 24.8015 79.0891 24.2199 78.5225 23.483C77.9556 22.7459 77.6155 21.8926 77.5024 20.923H81.1578C81.2712 21.4855 81.5734 21.9704 82.0645 22.3776C82.5746 22.7653 83.2266 22.9592 84.0199 22.9592C84.8132 22.9592 85.3894 22.7947 85.7485 22.465C86.1262 22.1353 86.3154 21.7571 86.3154 21.3305C86.3154 20.7097 86.0507 20.293 85.5217 20.0797C84.9928 19.8469 84.256 19.6241 83.3114 19.4107C82.7069 19.2749 82.0928 19.1101 81.4694 18.9162C80.8459 18.7222 80.2697 18.4798 79.7411 18.1889C79.2307 17.8786 78.8151 17.4908 78.4943 17.0254C78.1731 16.5406 78.0125 15.9492 78.0125 15.2511C78.0125 13.9712 78.5036 12.895 79.4857 12.0223C80.4872 11.1497 81.885 10.7134 83.6798 10.7134C85.3422 10.7134 86.6648 11.1109 87.647 11.906C88.6485 12.701 89.2433 13.7967 89.4325 15.1929H86.0035C85.7957 14.1263 85.0117 13.5931 83.6515 13.5931C82.9716 13.5931 82.4426 13.7288 82.0645 14.0003C81.7058 14.2718 81.5262 14.6111 81.5262 15.0184C81.5262 15.445 81.8002 15.7843 82.3481 16.0365C82.8957 16.2885 83.6232 16.5212 84.5299 16.7345C85.5124 16.9673 86.4098 17.229 87.2221 17.5199C88.0533 17.7914 88.7143 18.2083 89.2057 18.7707C89.6968 19.3138 89.9425 20.0991 89.9425 21.1268C89.9615 22.0189 89.7347 22.8237 89.2622 23.5411C88.7901 24.2585 88.1098 24.8209 87.2221 25.2281C86.334 25.6352 85.2857 25.839 84.0764 25.839Z" fill="black"/>
<path d="M97.5478 25.839C96.301 25.839 95.2054 25.6352 94.2608 25.2281C93.3162 24.8015 92.5605 24.2199 91.9936 23.483C91.427 22.7459 91.0869 21.8926 90.9735 20.923H94.6292C94.7426 21.4855 95.0448 21.9704 95.5359 22.3776C96.046 22.7653 96.6976 22.9592 97.4913 22.9592C98.2846 22.9592 98.8608 22.7947 99.2199 22.465C99.5976 22.1353 99.7865 21.7571 99.7865 21.3305C99.7865 20.7097 99.5221 20.293 98.9931 20.0797C98.4641 19.8469 97.7273 19.6241 96.7827 19.4107C96.1783 19.2749 95.5642 19.1101 94.9408 18.9162C94.3173 18.7222 93.7411 18.4798 93.2121 18.1889C92.7021 17.8786 92.2865 17.4908 91.9653 17.0254C91.6441 16.5406 91.4835 15.9492 91.4835 15.2511C91.4835 13.9712 91.975 12.895 92.9571 12.0223C93.9586 11.1497 95.3564 10.7134 97.1511 10.7134C98.8136 10.7134 100.136 11.1109 101.118 11.906C102.12 12.701 102.715 13.7967 102.904 15.1929H99.4749C99.2671 14.1263 98.4831 13.5931 97.1229 13.5931C96.4426 13.5931 95.9136 13.7288 95.5359 14.0003C95.1768 14.2718 94.9976 14.6111 94.9976 15.0184C94.9976 15.445 95.2713 15.7843 95.8192 16.0365C96.3671 16.2885 97.0943 16.5212 98.0013 16.7345C98.9835 16.9673 99.8809 17.229 100.693 17.5199C101.525 17.7914 102.186 18.2083 102.677 18.7707C103.168 19.3138 103.414 20.0991 103.414 21.1268C103.433 22.0189 103.206 22.8237 102.734 23.5411C102.261 24.2585 101.581 24.8209 100.693 25.2281C99.8054 25.6352 98.7571 25.839 97.5478 25.839Z" fill="black"/>
<path d="M106.22 31.8895L109.478 24.5302H108.628L103.159 11.0625H107.098L111.037 21.2142L115.146 11.0625H119L110.074 31.8895H106.22Z" fill="black"/>
<path d="M8.81658 23.1593L23.1135 8.48384L20.7625 6.07056L6.46552 20.746L8.81658 23.1593Z" fill="#0053EA"/>
<path d="M14.4689 8.48384L8.81658 14.2858L6.46552 11.8725L12.1178 6.07056L14.4689 8.48384Z" fill="#0053EA"/>
<path d="M17.4613 23.159L23.1135 17.3571L20.7625 14.9438L15.1102 20.7457L17.4613 23.159Z" fill="#0053EA"/>
<path fill-rule="evenodd" clip-rule="evenodd" d="M0.991394 28.7787V0.110107H28.9205V28.7787H0.991394ZM4.31628 3.52303H25.5956V25.3658H4.31628V3.52303Z" fill="#0053EA"/>
</svg>
