<svg width="110" height="24" viewBox="0 0 110 24" fill="none" xmlns="http://www.w3.org/2000/svg">
<path d="M4.77606 0.157471H0.883582C0.674629 0.157471 0.505249 0.329785 0.505249 0.542358V8.00418L4.77606 0.157471Z" fill="#35293B"/>
<path d="M0.505249 10.4042C0.517545 10.4048 0.529954 10.4051 0.542477 10.4051H6.47693C6.94145 10.4051 7.30643 10.8088 7.26682 11.2788L6.7533 17.3715C6.68032 18.2372 7.82308 18.5901 8.23701 17.8296L14.4035 6.49992C14.6955 5.96335 14.3134 5.30538 13.7097 5.30538H7.77522C7.3107 5.30538 6.94572 4.90167 6.98533 4.43169L7.34558 0.157471H13.3342C18.8526 0.157471 21.3264 7.21881 17.0584 10.7885L13.7219 13.5791C13.5034 13.7619 13.4604 14.0859 13.6233 14.3215L19.3807 22.6442C19.5573 22.8993 19.378 23.2507 19.0714 23.2507H0.883582C0.674629 23.2507 0.505249 23.0783 0.505249 22.8659V10.4042Z" fill="#35293B"/>
<path d="M65.3347 12.6589V18.4943H68.5028V11.9427C68.5028 11.1703 68.3375 10.4962 68.0061 9.92035C67.6887 9.33043 67.2331 8.87395 66.6395 8.55107C66.0456 8.21391 65.3555 8.04537 64.5685 8.04537C63.7956 8.04537 63.112 8.21391 62.5187 8.55107C62.361 8.63679 62.2127 8.73262 62.0734 8.83824C61.9982 8.8952 61.9259 8.95513 61.8559 9.0179V3.62158H58.6877V18.4943H61.8559V12.6589C61.8559 12.3079 61.932 11.9989 62.084 11.7321C62.2358 11.4511 62.4427 11.2404 62.7049 11.1C62.9674 10.9455 63.2709 10.8683 63.6159 10.8683C64.113 10.8683 64.5205 11.0369 64.8379 11.3738C65.1693 11.6969 65.3347 12.1252 65.3347 12.6589Z" fill="#35293B"/>
<path fill-rule="evenodd" clip-rule="evenodd" d="M30.1348 12.3641V18.4943H26.8842V3.62158H32.8474C33.8141 3.62158 34.6631 3.81122 35.3948 4.19025C36.1261 4.55544 36.6992 5.06811 37.1135 5.72811C37.5274 6.38815 37.7344 7.14665 37.7344 8.00326C37.7344 8.87395 37.5274 9.63942 37.1135 10.2994C36.6992 10.9455 36.1196 11.4511 35.3739 11.8162C34.9582 12.0199 34.5015 12.1669 34.004 12.2569L38.6874 18.4943H34.8356L30.4753 12.3641H30.1348ZM30.1348 9.92035H32.4544C33.1032 9.92035 33.6003 9.75177 33.9454 9.41464C34.304 9.07767 34.4837 8.62116 34.4837 8.04537C34.4837 7.5118 34.3112 7.06941 33.9658 6.71835C33.6208 6.3671 33.124 6.19155 32.4752 6.19155H30.1348V9.92035Z" fill="#35293B"/>
<path fill-rule="evenodd" clip-rule="evenodd" d="M40.7773 18.0517C41.6334 18.5011 42.6065 18.7259 43.6969 18.7259C44.5394 18.7259 45.3124 18.5783 46.0164 18.2834C46.7201 17.9884 47.3209 17.546 47.8181 16.9563L46.0785 15.1867C45.7747 15.5377 45.4228 15.8046 45.0222 15.9873C44.6219 16.1557 44.1736 16.2401 43.6761 16.2401C43.1381 16.2401 42.6686 16.1277 42.2683 15.9029C41.8816 15.6642 41.5782 15.3342 41.3573 14.9129C41.2877 14.7666 41.2301 14.611 41.184 14.4458L48.3977 14.4284C48.4529 14.1615 48.4873 13.9298 48.5009 13.7332C48.5108 13.6597 48.5184 13.5881 48.5248 13.518C48.5282 13.4833 48.5305 13.449 48.5327 13.4152C48.5361 13.3643 48.5388 13.3143 48.5403 13.2653L48.5418 13.2111L48.5426 13.1433C48.5426 12.1461 48.322 11.2613 47.8801 10.4889C47.4522 9.71648 46.8586 9.11267 46.0993 8.67721C45.34 8.24198 44.463 8.02417 43.4695 8.02417C42.4476 8.02417 41.5298 8.25587 40.7152 8.71932C39.9007 9.18276 39.2518 9.82194 38.7687 10.6364C38.2992 11.4369 38.0646 12.3498 38.0646 13.375C38.0646 14.4002 38.3064 15.3201 38.7891 16.1346C39.2727 16.9491 39.9355 17.5883 40.7773 18.0517ZM41.1847 12.2333C41.2003 12.1784 41.2169 12.1247 41.2347 12.0721C41.265 11.9834 41.2986 11.8978 41.3365 11.8161C41.5438 11.3947 41.8268 11.0717 42.1854 10.8471C42.5581 10.6082 42.9932 10.4889 43.4899 10.4889C43.9591 10.4889 44.3525 10.5943 44.6703 10.805L44.7131 10.8309L44.7555 10.8586C44.7914 10.8828 44.8258 10.9084 44.8595 10.9351C44.8924 10.9612 44.9246 10.9886 44.9556 11.0172C45.1482 11.1946 45.3014 11.4188 45.4156 11.6898C45.4853 11.8484 45.5413 12.0253 45.584 12.2205L41.1847 12.2333Z" fill="#35293B"/>
<path d="M54.1104 18.7259C53.0746 18.7259 52.1359 18.4941 51.2938 18.0307C50.452 17.5672 49.7895 16.9281 49.306 16.1135C48.8229 15.299 48.5811 14.3861 48.5811 13.375C48.5811 12.3498 48.8229 11.4369 49.306 10.6364C49.8031 9.82194 50.4724 9.18276 51.3146 8.71932C52.1567 8.25587 53.1022 8.02417 54.1517 8.02417C54.9382 8.02417 55.6559 8.16473 56.3052 8.44551C56.6358 8.57875 56.9479 8.74695 57.2408 8.95009C57.5344 9.15401 57.8094 9.39306 58.0652 9.66745L56.0358 11.7319C55.8012 11.465 55.525 11.2685 55.2076 11.142C55.0642 11.0824 54.9106 11.0369 54.7457 11.0054C54.6704 10.9909 54.5932 10.9794 54.5138 10.9709C54.4317 10.9621 54.3473 10.9565 54.2603 10.954C54.2243 10.9529 54.1884 10.9524 54.1517 10.9524C54.0397 10.9524 53.9307 10.9587 53.8248 10.9713L53.7677 10.9788L53.7321 10.9841C53.6954 10.9899 53.6587 10.9967 53.6224 11.004C53.3742 11.0548 53.1434 11.1429 52.9297 11.2685C52.5846 11.465 52.3088 11.7458 52.1015 12.1109C51.9082 12.4622 51.8113 12.8764 51.8113 13.3539C51.8113 13.8315 51.9082 14.2528 52.1015 14.6178C52.3088 14.9829 52.5918 15.2709 52.9505 15.4816C53.3091 15.6922 53.7098 15.7976 54.1517 15.7976C54.566 15.7976 54.9314 15.7274 55.2489 15.587C55.5803 15.4325 55.8633 15.2218 56.0978 14.955L58.1068 17.0194C57.582 17.5811 56.9884 18.0094 56.326 18.3045C55.6631 18.5853 54.9246 18.7259 54.1104 18.7259Z" fill="#35293B"/>
<path fill-rule="evenodd" clip-rule="evenodd" d="M73.9128 18.706C72.9882 18.706 72.1596 18.4742 71.4283 18.0106C70.7102 17.5471 70.1374 16.9153 69.7096 16.1147C69.2953 15.3143 69.088 14.4013 69.088 13.3762C69.088 12.351 69.2953 11.438 69.7096 10.6376C70.1374 9.837 70.7102 9.20517 71.4283 8.74153C72.1596 8.27809 72.9882 8.04639 73.9128 8.04639C74.5893 8.04639 75.1969 8.17979 75.7353 8.44667C76.0973 8.62164 76.4147 8.84187 76.6875 9.10725V8.25704H79.7936V18.4953H76.6875V17.6657C76.501 17.8452 76.2914 18.0042 76.0591 18.1427C76.0167 18.1681 75.9732 18.1929 75.929 18.217C75.8726 18.2476 75.8147 18.2771 75.7557 18.3056C75.2037 18.5725 74.5893 18.706 73.9128 18.706ZM74.5552 15.7988C75.2317 15.7988 75.7765 15.5741 76.1908 15.1247C76.605 14.6613 76.812 14.0783 76.812 13.3762C76.812 13.1373 76.7878 12.9125 76.7394 12.7019C76.6909 12.4912 76.6187 12.2946 76.5222 12.1121C76.3425 11.747 76.0803 11.4662 75.7353 11.2696C75.5487 11.151 75.3448 11.0659 75.1235 11.014C74.9514 10.9736 74.769 10.9535 74.5757 10.9535C74.3551 10.9535 74.1463 10.9798 73.9499 11.0325C73.83 11.0646 73.7142 11.1065 73.6034 11.1582C73.5322 11.1913 73.463 11.2284 73.3953 11.2696C73.0639 11.4662 72.7949 11.747 72.5875 12.1121C72.3946 12.4773 72.2981 12.8986 72.2981 13.3762C72.2981 13.8396 72.3946 14.254 72.5875 14.619C72.7809 14.9841 73.0502 15.272 73.3953 15.4827C73.7403 15.6934 74.127 15.7988 74.5552 15.7988Z" fill="#35293B"/>
<path d="M84.3648 8.25704H81.1966V18.4953H84.3648V12.8706C84.3648 12.2104 84.5168 11.7189 84.8203 11.3959C85.1381 11.0589 85.5591 10.8904 86.0835 10.8904C86.3461 10.8904 86.5806 10.9325 86.788 11.0168C86.9945 11.1011 87.1674 11.2204 87.3055 11.3749L89.1896 8.95222C88.9138 8.64323 88.5892 8.41865 88.2166 8.27809C87.8579 8.1236 87.4364 8.04639 86.9533 8.04639C85.849 8.04639 84.9864 8.37658 84.3648 9.03659V8.25704Z" fill="#35293B"/>
<path fill-rule="evenodd" clip-rule="evenodd" d="M93.1874 23.0875C92.0831 23.0875 91.1096 22.8909 90.2679 22.4979C89.4393 22.1188 88.7837 21.578 88.3005 20.8756L90.2467 18.8954C90.6057 19.3308 91.0064 19.6609 91.4479 19.8856C91.9034 20.11 92.4486 20.2224 93.0838 20.2224C93.8707 20.2224 94.4848 20.0261 94.9266 19.6328C95.3822 19.2395 95.6103 18.6847 95.6103 17.9685V17.3218C95.3946 17.4973 95.1529 17.6496 94.8854 17.7789C94.333 18.0457 93.719 18.1792 93.0425 18.1792C92.1171 18.1792 91.2962 17.9546 90.5781 17.505C89.8604 17.0557 89.2944 16.4448 88.8801 15.6723C88.4659 14.8999 88.2589 14.0433 88.2589 13.1023C88.2589 12.1473 88.4659 11.2907 88.8801 10.5321C89.2944 9.75975 89.8604 9.15594 90.5781 8.72048C91.2962 8.27112 92.1171 8.04639 93.0425 8.04639C93.7326 8.04639 94.347 8.17979 94.8854 8.44667C94.935 8.46922 94.9834 8.4927 95.0311 8.51714C95.266 8.6378 95.4798 8.78044 95.6723 8.94506V8.25704H98.7785V17.8843C98.7785 18.9377 98.5367 19.8506 98.0536 20.6227C97.5704 21.3952 96.908 21.9991 96.0658 22.4344C95.2233 22.8701 94.2642 23.0875 93.1874 23.0875ZM93.643 15.3143C94.0849 15.3143 94.4643 15.2158 94.7817 15.0193C94.8631 14.971 94.9395 14.9187 95.011 14.8627C95.2301 14.6911 95.4022 14.4835 95.5271 14.2399C95.5808 14.1395 95.6262 14.0356 95.6633 13.9279C95.7121 13.7883 95.7476 13.6423 95.7696 13.49C95.7877 13.3651 95.7964 13.2358 95.7964 13.1023C95.7964 12.681 95.7068 12.3017 95.5271 11.9648C95.3617 11.6276 95.1128 11.3608 94.7817 11.1642C94.4643 10.9676 94.0849 10.8693 93.643 10.8693C93.5124 10.8693 93.3868 10.8785 93.2654 10.8968L93.2018 10.9073L93.1458 10.9178C93.0255 10.9424 92.9098 10.9764 92.7989 11.0198C92.7369 11.0441 92.6763 11.0713 92.6177 11.1014C92.5791 11.1211 92.5416 11.142 92.5042 11.1642C92.1728 11.3608 91.9174 11.6276 91.7381 11.9648C91.6442 12.1403 91.575 12.3273 91.5303 12.5257C91.4891 12.7083 91.4687 12.9005 91.4687 13.1023C91.4687 13.4955 91.5583 13.8676 91.7381 14.2189C91.9174 14.5558 92.1656 14.8227 92.4834 15.0193C92.6612 15.1249 92.8553 15.2023 93.0652 15.2512C93.2461 15.2933 93.4387 15.3143 93.643 15.3143Z" fill="#35293B"/>
<path fill-rule="evenodd" clip-rule="evenodd" d="M102.235 18.0517C103.091 18.5011 104.064 18.7259 105.154 18.7259C105.997 18.7259 106.77 18.5783 107.474 18.2834C108.178 17.9884 108.778 17.546 109.275 16.9563L107.536 15.1867C107.232 15.5377 106.88 15.8046 106.48 15.9873C106.08 16.1557 105.631 16.2401 105.134 16.2401C104.596 16.2401 104.126 16.1277 103.726 15.9029C103.45 15.7326 103.216 15.5157 103.025 15.2523C102.994 15.2104 102.965 15.1671 102.937 15.1228C102.893 15.0557 102.853 14.9856 102.815 14.9129C102.745 14.7666 102.687 14.611 102.641 14.4458L109.855 14.4284C109.882 14.2966 109.905 14.1733 109.922 14.0587C109.939 13.941 109.952 13.8326 109.959 13.7332C109.968 13.659 109.976 13.5864 109.983 13.5157C109.994 13.3857 110 13.2615 110 13.1433C110 12.1461 109.779 11.2613 109.338 10.4889C108.909 9.71648 108.316 9.11267 107.557 8.67721C106.797 8.24198 105.921 8.02417 104.927 8.02417C103.905 8.02417 102.987 8.25587 102.172 8.71932C101.358 9.18276 100.709 9.82194 100.226 10.6364C99.757 11.4369 99.5221 12.3498 99.5221 13.375C99.5221 14.4002 99.7635 15.3201 100.247 16.1346C100.73 16.9491 101.393 17.5883 102.235 18.0517ZM102.643 12.2333C102.684 12.0856 102.734 11.9463 102.794 11.8161C102.912 11.5755 103.055 11.3671 103.223 11.1908C103.281 11.129 103.343 11.0711 103.408 11.0172C103.482 10.9554 103.56 10.8986 103.643 10.8471C104.016 10.6082 104.451 10.4889 104.947 10.4889C105.417 10.4889 105.81 10.5943 106.128 10.805C106.255 10.8802 106.369 10.9696 106.471 11.0736C106.637 11.2414 106.771 11.4468 106.873 11.6898C106.942 11.8484 106.998 12.0253 107.041 12.2205L102.643 12.2333Z" fill="#35293B"/>
</svg>
