<svg width="153" height="35" viewBox="0 0 153 35" fill="none" xmlns="http://www.w3.org/2000/svg">
<path d="M41.6421 28.6566L43.3489 28.2223V9.7033L41.6421 9.26925V8.83521H49.322C52.2041 8.83521 54.3186 9.30783 55.6648 10.2531C57.0302 11.179 57.7127 12.3944 57.7127 13.8991C57.7127 14.9407 57.4187 15.7798 56.831 16.4165C56.2433 17.0532 55.4942 17.5258 54.5839 17.8342C53.6169 18.1815 52.5739 18.3649 51.4551 18.3842V18.5288C52.8395 18.5866 54.0435 18.7989 55.0676 19.1655C56.1104 19.5127 56.9731 20.0528 57.6558 20.7859C58.3575 21.519 58.7083 22.4545 58.7083 23.5927C58.7083 25.3095 58.0161 26.66 56.6317 27.6437C55.2476 28.6081 53.0005 29.0906 49.8907 29.0906H41.6421V28.6566ZM49.322 18.0947C49.9478 18.0947 50.526 17.9212 51.0569 17.574C51.6069 17.2074 52.0431 16.7059 52.3655 16.0692C52.7068 15.4132 52.8774 14.6901 52.8774 13.8991C52.8774 13.0502 52.7068 12.2979 52.3655 11.642C52.0431 10.9861 51.6069 10.4749 51.0569 10.1084C50.526 9.74188 49.9478 9.55861 49.322 9.55861H48.0421V18.0947H49.322ZM49.8907 28.3672C51.0664 28.3672 52.0241 27.9428 52.7637 27.094C53.5032 26.2453 53.8727 25.0781 53.8727 23.5927C53.8727 22.1072 53.5032 20.9401 52.7637 20.0913C52.0241 19.2426 51.0664 18.8182 49.8907 18.8182H48.0421V28.3672H49.8907Z" fill="#1A1B6C"/>
<path d="M59.2681 28.6566L60.9749 28.2223V9.7033L59.2681 9.26925V8.83521H62.9659C64.6724 8.83521 65.5257 9.7033 65.5257 11.4395V28.2223L67.2324 28.6566V29.0906H59.2681V28.6566Z" fill="#1A1B6C"/>
<path d="M75.05 29.5243C72.6987 29.5243 70.8498 28.8491 69.5036 27.4988C68.1761 26.129 67.5126 24.2484 67.5126 21.8563C67.5126 19.4642 68.1761 17.5929 69.5036 16.2427C70.8498 14.8729 72.6987 14.188 75.05 14.188C77.4014 14.188 79.2405 14.8729 80.568 16.2427C81.9143 17.5929 82.5875 19.4642 82.5875 21.8563C82.5875 24.2484 81.9143 26.129 80.568 27.4988C79.2405 28.8491 77.4014 29.5243 75.05 29.5243ZM75.05 28.9455C75.8086 28.9455 76.4436 28.4054 76.9558 27.325C77.4866 26.245 77.7522 24.4219 77.7522 21.8563C77.7522 19.2905 77.4866 17.4676 76.9558 16.3873C76.4436 15.3069 75.8086 14.7669 75.05 14.7669C74.2915 14.7669 73.6467 15.3069 73.1159 16.3873C72.6037 17.4676 72.3479 19.2905 72.3479 21.8563C72.3479 24.4219 72.6037 26.245 73.1159 27.325C73.6467 28.4054 74.2915 28.9455 75.05 28.9455Z" fill="#1A1B6C"/>
<path d="M90.1358 29.5243C88.9601 29.5243 87.9076 29.2638 86.9786 28.743C86.5235 28.4922 86.1537 28.222 85.8692 27.9328C85.5658 28.3572 85.2342 28.6852 84.8739 28.9165C84.7031 29.0322 84.5136 29.1385 84.3049 29.2349H83.5937V24.3158H84.7315C84.9781 25.126 85.3384 25.8784 85.8124 26.5727C86.8175 28.0581 88.069 28.8009 89.567 28.8009C90.3634 28.8009 90.9606 28.6078 91.3588 28.222C91.776 27.8169 91.9847 27.2383 91.9847 26.4859C91.9847 25.8495 91.7002 25.3188 91.1314 24.8944C90.5814 24.4508 89.7092 23.9107 88.5145 23.274C87.4905 22.7532 86.6562 22.2903 86.0116 21.8852C85.3858 21.4608 84.8454 20.9398 84.3901 20.3226C83.954 19.6859 83.7361 18.9432 83.7361 18.0944C83.7361 16.937 84.2196 16.0014 85.1865 15.2876C86.1727 14.5545 87.6802 14.188 89.7092 14.188C90.714 14.188 91.6433 14.4581 92.4966 14.9982C92.9137 15.2491 93.274 15.5096 93.5775 15.7795C93.8238 15.4322 94.1557 15.1045 94.5729 14.7958C94.8953 14.6027 95.085 14.4967 95.1419 14.4774H95.853V19.3965H94.7153C94.4308 18.567 94.0799 17.8243 93.6628 17.1686C92.7148 15.6638 91.5865 14.9114 90.2779 14.9114C89.766 14.9114 89.3299 15.1045 88.9696 15.4903C88.6093 15.8761 88.4293 16.3584 88.4293 16.937C88.4293 17.6701 88.7325 18.2875 89.3394 18.789C89.9463 19.2712 90.8659 19.8305 92.0984 20.4672C93.1035 20.988 93.8999 21.4512 94.4876 21.8563C95.0945 22.2421 95.6064 22.7243 96.0236 23.3029C96.4597 23.8818 96.6779 24.5568 96.6779 25.3284C96.6779 28.1256 94.4971 29.5243 90.1358 29.5243Z" fill="#1A1B6C"/>
<path d="M104.073 29.5243C102.897 29.5243 101.845 29.2638 100.916 28.743C100.46 28.4922 100.091 28.222 99.8065 27.9328C99.503 28.3572 99.1711 28.6852 98.8108 28.9165C98.6403 29.0322 98.4505 29.1385 98.2421 29.2349H97.5309V24.3158H98.6687C98.9153 25.126 99.2754 25.8784 99.7496 26.5727C100.754 28.0581 102.006 28.8009 103.504 28.8009C104.3 28.8009 104.898 28.6078 105.296 28.222C105.713 27.8169 105.922 27.2383 105.922 26.4859C105.922 25.8495 105.637 25.3188 105.068 24.8944C104.519 24.4508 103.646 23.9107 102.452 23.274C101.428 22.7532 100.593 22.2903 99.9486 21.8852C99.323 21.4608 98.7824 20.9398 98.3274 20.3226C97.8912 19.6859 97.6731 18.9432 97.6731 18.0944C97.6731 16.937 98.1568 16.0014 99.1238 15.2876C100.11 14.5545 101.617 14.188 103.646 14.188C104.651 14.188 105.58 14.4581 106.434 14.9982C106.851 15.2491 107.211 15.5096 107.514 15.7795C107.761 15.4322 108.093 15.1045 108.51 14.7958C108.833 14.6027 109.022 14.4967 109.079 14.4774H109.79V19.3965H108.652C108.368 18.567 108.017 17.8243 107.6 17.1686C106.652 15.6638 105.523 14.9114 104.215 14.9114C103.703 14.9114 103.267 15.1045 102.907 15.4903C102.547 15.8761 102.366 16.3584 102.366 16.937C102.366 17.6701 102.67 18.2875 103.277 18.789C103.883 19.2712 104.803 19.8305 106.036 20.4672C107.04 20.988 107.837 21.4512 108.425 21.8563C109.031 22.2421 109.544 22.7243 109.961 23.3029C110.397 23.8818 110.615 24.5568 110.615 25.3284C110.615 28.1256 108.434 29.5243 104.073 29.5243Z" fill="#1A1B6C"/>
<path d="M118.866 29.5243C116.514 29.5243 114.666 28.8491 113.319 27.4988C111.992 26.129 111.328 24.2484 111.328 21.8563C111.328 19.4642 111.992 17.5929 113.319 16.2427C114.666 14.8729 116.514 14.188 118.866 14.188C121.217 14.188 123.056 14.8729 124.384 16.2427C125.73 17.5929 126.403 19.4642 126.403 21.8563C126.403 24.2484 125.73 26.129 124.384 27.4988C123.056 28.8491 121.217 29.5243 118.866 29.5243ZM118.866 28.9455C119.624 28.9455 120.26 28.4054 120.771 27.325C121.303 26.245 121.568 24.4219 121.568 21.8563C121.568 19.2905 121.303 17.4676 120.771 16.3873C120.26 15.3069 119.624 14.7669 118.866 14.7669C118.108 14.7669 117.463 15.3069 116.932 16.3873C116.42 17.4676 116.164 19.2905 116.164 21.8563C116.164 24.4219 116.42 26.245 116.932 27.325C117.463 28.4054 118.108 28.9455 118.866 28.9455Z" fill="#1A1B6C"/>
<path d="M127.265 28.6563L128.972 28.222V15.4903L127.265 15.0563V14.622H129.825C130.944 14.622 131.826 14.9886 132.47 15.7217C132.717 16.0111 132.926 16.368 133.096 16.7924C133.381 16.2523 133.684 15.818 134.006 15.4903C134.86 14.622 135.836 14.188 136.936 14.188C138.036 14.188 139.003 14.4389 139.837 14.9404C140.672 15.4226 141.316 16.0882 141.772 16.937C142.056 16.3776 142.359 15.9243 142.682 15.5771C143.554 14.6512 144.531 14.188 145.611 14.188C146.616 14.188 147.517 14.4003 148.313 14.8247C149.129 15.2491 149.755 15.8277 150.191 16.5608C150.646 17.2939 150.873 18.0944 150.873 18.9625V28.222L152.58 28.6563V29.0903H148.882C147.176 29.0903 146.322 28.222 146.322 26.4859V18.9625C146.322 17.7086 146.133 16.7731 145.754 16.1557C145.374 15.5192 144.948 15.2009 144.474 15.2009C143.924 15.2009 143.364 15.5867 142.795 16.3584C142.568 16.7249 142.369 17.1107 142.198 17.5158V28.222L143.905 28.6563V29.0903H135.941V28.6563L137.647 28.222V18.9625C137.647 17.7086 137.458 16.7731 137.078 16.1557C136.699 15.5192 136.272 15.2009 135.798 15.2009C135.248 15.2009 134.689 15.5867 134.12 16.3584C133.893 16.7249 133.693 17.1107 133.523 17.5158V28.222L135.229 28.6563V29.0903H127.265V28.6563Z" fill="#1A1B6C"/>
<path fill-rule="evenodd" clip-rule="evenodd" d="M18.4906 34.6153C18.3071 34.6523 18.1168 34.6643 17.9239 34.6496C11.966 34.1896 6.32657 30.8417 3.11349 25.1799C-0.0996417 19.5181 -0.129988 12.8756 2.45768 7.3964C2.83335 6.60092 3.64774 6.12259 4.51276 6.18937C6.73304 6.36075 8.90907 6.9332 10.9318 7.87701C12.4581 4.84942 14.7162 2.26667 17.4686 0.370427C18.1869 -0.124452 19.1264 -0.124452 19.8447 0.370427C22.5597 2.24094 24.7937 4.77943 26.3188 7.75393C28.2648 6.88334 30.3464 6.35315 32.4685 6.18937C33.3336 6.12259 34.1479 6.60092 34.5235 7.3964C37.1111 12.8756 37.0809 19.5181 33.8679 25.1799C30.6546 30.8417 25.0153 34.1896 19.0572 34.6496C18.8643 34.6643 18.674 34.6523 18.4906 34.6153ZM22.8558 31.1834C26.4273 29.9477 29.5861 27.44 31.6184 23.8588C34.3237 19.0919 34.4119 13.5179 32.3264 8.85375C30.6141 9.02278 28.9378 9.46834 27.3655 10.1718C28.1325 12.3183 28.5509 14.6352 28.5509 17.0513C28.5509 22.5581 26.3775 27.5487 22.8558 31.1834ZM24.0194 8.98254C22.7453 6.49409 20.8993 4.3557 18.6566 2.7468C16.3659 4.39015 14.4891 6.58593 13.2127 9.14292C15.2441 10.4645 17.0488 12.203 18.4906 14.3214C19.9915 12.1162 21.8857 10.3226 24.0194 8.98254ZM19.9621 16.884C21.2672 14.6194 23.0248 12.7893 25.0518 11.4451C25.6369 13.2052 25.9538 15.0906 25.9538 17.0513C25.9538 21.5779 24.2647 25.7036 21.4878 28.8114C22.2392 24.8856 21.7846 20.7045 19.9621 16.884ZM17.0191 16.884C15.7729 14.7211 14.1135 12.9548 12.2011 11.6294C11.6546 13.3366 11.3594 15.1589 11.3594 17.0513C11.3594 21.3458 12.8797 25.2795 15.4068 28.3254C14.782 24.5421 15.2715 20.5473 17.0191 16.884ZM18.4906 30.1027C19.4657 26.9487 19.5057 23.5075 18.4906 20.2456C17.4755 23.5075 17.5157 26.9487 18.4906 30.1027ZM5.36275 23.8588C7.48747 27.6028 10.8433 30.1731 14.6146 31.3437C11.0003 27.6962 8.76216 22.6398 8.76216 17.0513C8.76216 14.6842 9.16376 12.4126 9.9014 10.3029C8.24689 9.52353 6.47132 9.03304 4.65477 8.85375C2.56937 13.5179 2.65746 19.0919 5.36275 23.8588Z" fill="#EF898B"/>
</svg>
