<svg width="110" height="29" viewBox="0 0 110 29" fill="none" xmlns="http://www.w3.org/2000/svg">
<path d="M1.77031 6.8596C2.495 5.43486 6.29698 1.97952 9.36515 1.3081C10.7406 1.00711 11.2447 1.78369 11.3084 2.91439C17.5147 3.64691 23.31 8.98556 24.6397 15.4626C24.9993 17.2147 24.9979 18.8833 24.6876 20.4002L26.202 20.3757C25.4768 22.4035 23.0636 26.646 17.3826 27.8625C17.1665 27.9088 16.9508 27.9456 16.7355 27.973C16.1935 28.0544 15.6311 28.0966 15.0509 28.0966C8.32284 28.0966 1.70773 22.4402 0.275518 15.4626C-0.406679 12.139 0.21011 9.11518 1.77031 6.8596Z" fill="#9F163D"/>
<path d="M17.3332 25.9901C23.9393 25.9901 28.1436 20.3863 26.7237 13.4736C25.3038 6.56088 18.7974 0.957031 12.1913 0.957031C5.58509 0.957031 1.38079 6.56088 2.80069 13.4736C4.22059 20.3863 10.727 25.9901 17.3332 25.9901Z" fill="#EB323A"/>
<path d="M17.033 22.7155C22.2215 22.7155 25.5246 18.3161 24.4106 12.8891C23.2967 7.46216 18.1876 3.06274 12.9991 3.06274C7.81059 3.06274 4.50752 7.46216 5.62146 12.8891C6.73539 18.3161 11.8445 22.7155 17.033 22.7155Z" fill="white"/>
<path d="M16.7151 19.6741C20.5555 19.6741 23.0163 16.4953 22.2114 12.5741C21.4065 8.6529 17.6408 5.47412 13.8004 5.47412C9.96009 5.47412 7.49934 8.6529 8.30421 12.5741C9.10908 16.4953 12.8748 19.6741 16.7151 19.6741Z" fill="#EB323A"/>
<path d="M16.5943 16.7339C19.0551 16.7339 20.6407 14.7398 20.1358 12.2799C19.6309 9.82005 17.2267 7.82593 14.7658 7.82593C12.305 7.82593 10.7194 9.82005 11.2243 12.2799C11.7292 14.7398 14.1334 16.7339 16.5943 16.7339Z" fill="white"/>
<path d="M16.1313 14.478C17.3458 14.478 18.1284 13.4938 17.8792 12.2798C17.63 11.0657 16.4434 10.0815 15.2289 10.0815C14.0144 10.0815 13.2318 11.0657 13.481 12.2798C13.7302 13.4938 14.9168 14.478 16.1313 14.478Z" fill="#EB323A"/>
<path d="M46.8244 20.7459C46.8244 20.9019 46.9484 21.0286 47.1012 21.0286H49.2054C49.3582 21.0286 49.4822 20.9019 49.4822 20.7459V10.4246H47.1012C46.9484 10.4246 46.8244 10.5511 46.8244 10.7073V20.7459Z" fill="#EB323A"/>
<path d="M46.9104 8.74525C47.1653 9.01865 47.5542 9.15534 48.0768 9.15534C48.5994 9.15534 48.982 9.01865 49.2239 8.74525C49.4661 8.45884 49.5873 8.10733 49.5873 7.69071C49.5873 7.24808 49.4661 6.89003 49.2239 6.61666C48.982 6.34326 48.5994 6.20654 48.0768 6.20654C47.5542 6.20654 47.1653 6.34326 46.9104 6.61666C46.6682 6.89003 46.5472 7.24808 46.5472 7.69071C46.5472 8.10733 46.6682 8.45884 46.9104 8.74525Z" fill="#EB323A"/>
<path fill-rule="evenodd" clip-rule="evenodd" d="M42.6342 16.0685C41.8184 16.4592 40.8242 16.6542 39.6514 16.6542H37.5483V20.7461C37.5483 20.9021 37.4243 21.0288 37.2715 21.0288H35.11C34.9569 21.0288 34.8332 20.9021 34.8332 20.7461V6.958C34.8332 6.80186 34.9569 6.67529 35.11 6.67529H37.2715C37.3014 6.67529 37.3302 6.68013 37.357 6.68906C37.3839 6.68013 37.4126 6.67529 37.4425 6.67529H39.6514C40.8242 6.67529 41.8184 6.87059 42.6342 7.26114C43.4629 7.65172 44.0937 8.21153 44.5272 8.9406C44.9607 9.65663 45.1774 10.5094 45.1774 11.4988V11.8113C45.1774 12.8007 44.9607 13.66 44.5272 14.389C44.0937 15.105 43.4629 15.6648 42.6342 16.0685ZM41.2576 9.40926C40.8878 9.18796 40.4289 9.07728 39.8809 9.07728H37.5483V14.2523H39.8809C40.4289 14.2523 40.8878 14.1417 41.2576 13.9203C41.6399 13.699 41.9267 13.3931 42.1179 13.0025C42.3219 12.6119 42.4241 12.1628 42.4241 11.655C42.4241 11.1473 42.3219 10.6981 42.1179 10.3076C41.9267 9.917 41.6399 9.61759 41.2576 9.40926Z" fill="#EB323A"/>
<path d="M51.8662 21.0288C51.7131 21.0288 51.5894 20.9022 51.5894 20.7461V10.7075C51.5894 10.5513 51.7131 10.4248 51.8662 10.4248H53.4157C53.5685 10.4248 53.6925 10.5513 53.6925 10.7075V13.0379C53.7542 12.7659 53.8306 12.5133 53.9219 12.28C54.2023 11.5509 54.6167 11.0041 55.1648 10.6396C55.7256 10.2751 56.4203 10.0928 57.249 10.0928H57.3636C58.6001 10.0928 59.5371 10.5029 60.1743 11.3231C60.8117 12.1302 61.1303 13.341 61.1303 14.9554V20.7461C61.1303 20.9022 61.0066 21.0288 60.8535 21.0288H58.7496C58.5965 21.0288 58.4728 20.9022 58.4728 20.7461V14.721C58.4728 14.0701 58.2879 13.5428 57.9181 13.1392C57.5613 12.7356 57.0641 12.5338 56.4267 12.5338C55.7768 12.5338 55.2475 12.7422 54.8398 13.1587C54.4445 13.5623 54.2469 14.1091 54.2469 14.7991V20.7461C54.2469 20.9022 54.1232 21.0288 53.9701 21.0288H51.8662Z" fill="#EB323A"/>
<path fill-rule="evenodd" clip-rule="evenodd" d="M71.0428 16.0685C70.2268 16.4592 69.2326 16.6542 68.06 16.6542H65.9567V20.7461C65.9567 20.9021 65.8327 21.0288 65.6799 21.0288H63.5183C63.3656 21.0288 63.2415 20.9021 63.2415 20.7461V6.958C63.2415 6.80186 63.3656 6.67529 63.5183 6.67529H65.6799C65.7098 6.67529 65.7385 6.68013 65.7654 6.68906C65.7925 6.68013 65.8213 6.67529 65.8512 6.67529H68.06C69.2326 6.67529 70.2268 6.87059 71.0428 7.26114C71.8713 7.65172 72.5024 8.21153 72.9356 8.9406C73.369 9.65663 73.5858 10.5094 73.5858 11.4988V11.8113C73.5858 12.8007 73.369 13.66 72.9356 14.389C72.5024 15.105 71.8713 15.6648 71.0428 16.0685ZM69.666 9.40926C69.2965 9.18796 68.8376 9.07728 68.2895 9.07728H65.9567V14.2523H68.2895C68.8376 14.2523 69.2965 14.1417 69.666 13.9203C70.0486 13.699 70.3353 13.3931 70.5266 13.0025C70.7303 12.6119 70.8325 12.1628 70.8325 11.655C70.8325 11.1473 70.7303 10.6981 70.5266 10.3076C70.3353 9.917 70.0486 9.61759 69.666 9.40926Z" fill="#EB323A"/>
<path fill-rule="evenodd" clip-rule="evenodd" d="M79.5024 21.3995C78.5845 21.3995 77.7752 21.2499 77.074 20.9502C76.3729 20.6509 75.7803 20.2474 75.2959 19.7397C74.8115 19.2187 74.4417 18.6329 74.1867 17.9821C73.9445 17.3311 73.8236 16.654 73.8236 15.9509V15.541C73.8236 14.8119 73.9509 14.1219 74.2058 13.4709C74.4738 12.807 74.8497 12.2211 75.3341 11.7134C75.8312 11.1926 76.4302 10.789 77.1313 10.5026C77.8324 10.2032 78.6227 10.0535 79.5024 10.0535C80.3818 10.0535 81.1723 10.2032 81.8734 10.5026C82.5743 10.789 83.1672 11.1926 83.6516 11.7134C84.1487 12.2211 84.5246 12.807 84.7795 13.4709C85.0345 14.1219 85.1621 14.8119 85.1621 15.541V15.9509C85.1621 16.654 85.0345 17.3311 84.7795 17.9821C84.5373 18.6329 84.1742 19.2187 83.6898 19.7397C83.2054 20.2474 82.6125 20.6509 81.9116 20.9502C81.2105 21.2499 80.4075 21.3995 79.5024 21.3995ZM79.5024 19.0756C80.1526 19.0756 80.7006 18.9323 81.1468 18.6459C81.5927 18.3465 81.9307 17.9493 82.1602 17.4546C82.3897 16.9469 82.5042 16.3741 82.5042 15.7363C82.5042 15.0853 82.3833 14.5125 82.1411 14.0177C81.9116 13.51 81.5673 13.1129 81.1083 12.8265C80.6624 12.5271 80.1268 12.3773 79.5024 12.3773C78.8776 12.3773 78.3359 12.5271 77.877 12.8265C77.4311 13.1129 77.0868 13.51 76.8446 14.0177C76.6024 14.5125 76.4814 15.0853 76.4814 15.7363C76.4814 16.3741 76.596 16.9469 76.8255 17.4546C77.0677 17.9493 77.4117 18.3465 77.8579 18.6459C78.3041 18.9323 78.8522 19.0756 79.5024 19.0756Z" fill="#EB323A"/>
<path d="M87.0298 20.7459C87.0298 20.9019 87.1538 21.0286 87.3066 21.0286H89.4108C89.5639 21.0286 89.6876 20.9019 89.6876 20.7459V10.4246H87.3066C87.1538 10.4246 87.0298 10.5511 87.0298 10.7073V20.7459Z" fill="#EB323A"/>
<path d="M87.1161 8.74525C87.371 9.01865 87.7597 9.15534 88.2823 9.15534C88.8051 9.15534 89.1874 9.01865 89.4296 8.74525C89.6718 8.45884 89.793 8.10733 89.793 7.69071C89.793 7.24808 89.6718 6.89003 89.4296 6.61666C89.1874 6.34326 88.8051 6.20654 88.2823 6.20654C87.7597 6.20654 87.371 6.34326 87.1161 6.61666C86.8739 6.89003 86.7527 7.24808 86.7527 7.69071C86.7527 8.10733 86.8739 8.45884 87.1161 8.74525Z" fill="#EB323A"/>
<path d="M92.0716 21.0288C91.9188 21.0288 91.7948 20.9022 91.7948 20.7461V10.7075C91.7948 10.5513 91.9188 10.4248 92.0716 10.4248H93.6214C93.7742 10.4248 93.8982 10.5513 93.8982 10.7075V13.0379C93.9597 12.7659 94.0363 12.5133 94.1277 12.28C94.4081 11.5509 94.8224 11.0041 95.3705 10.6396C95.9313 10.2751 96.6261 10.0928 97.4545 10.0928H97.5694C98.8059 10.0928 99.7425 10.5029 100.38 11.3231C101.017 12.1302 101.336 13.341 101.336 14.9554V20.7461C101.336 20.9022 101.212 21.0288 101.059 21.0288H98.955C98.8023 21.0288 98.6782 20.9022 98.6782 20.7461V14.721C98.6782 14.0701 98.4934 13.5428 98.1238 13.1392C97.7668 12.7356 97.2696 12.5338 96.6324 12.5338C95.9822 12.5338 95.4533 12.7422 95.0453 13.1587C94.6503 13.5623 94.4527 14.1091 94.4527 14.7991V20.7461C94.4527 20.9022 94.3286 21.0288 94.1759 21.0288H92.0716Z" fill="#EB323A"/>
<path d="M105.378 20.7948C106.003 21.0422 106.793 21.1657 107.749 21.1657H108.964C109.117 21.1657 109.241 21.0391 109.241 20.883V19.1246C109.241 18.9685 109.117 18.8419 108.964 18.8419H107.615C107.105 18.8419 106.71 18.705 106.43 18.4317C106.162 18.1453 106.028 17.7419 106.028 17.2211L106.038 12.417H108.964C109.117 12.417 109.241 12.2904 109.241 12.1343V10.7078C109.241 10.5517 109.117 10.4251 108.964 10.4251H106.042L106.047 7.72052C106.047 7.56416 105.923 7.43726 105.77 7.43726H103.838C103.685 7.43726 103.561 7.56348 103.561 7.71939L103.556 10.4251H102.175C102.022 10.4251 101.898 10.5517 101.898 10.7078V12.1343C101.898 12.2904 102.022 12.417 102.175 12.417H103.552L103.543 17.0453C103.543 18.0738 103.696 18.8939 104.002 19.5059C104.307 20.1047 104.766 20.5344 105.378 20.7948Z" fill="#EB323A"/>
</svg>
