<svg width="27" height="46" viewBox="0 0 27 46" fill="none" xmlns="http://www.w3.org/2000/svg">
<path d="M27 26.459L13.5 45.9713V34.9749L27 26.459ZM19.8449 33.3177L15.5114 36.0426V39.5702L19.8449 33.3177Z" fill="#5A9DED"/>
<path d="M0 26.459L13.5 45.9713V34.9749L0 26.459ZM7.15505 33.3177L11.4886 36.0426V39.5702L7.15505 33.3177Z" fill="#53D3E0"/>
<path d="M15.2129 17.5378L24.154 22.5137L24.4709 23.4818L23.4063 24.4105L15.2129 19.8412V17.5378Z" fill="#D995D1"/>
<path d="M11.793 17.5378L2.85185 22.5137L2.53493 23.4818L3.59954 24.4105L11.793 19.8412V17.5378Z" fill="#A6E276"/>
<path d="M13.5 0.992432L27 24.0935L13.5 32.5884V0.992432ZM15.4938 8.40286V29.0284L24.3133 23.4819L15.4938 8.40286Z" fill="#FF9C92"/>
<path d="M13.5 0.992432L0 24.0935L13.5 32.5884V0.992432ZM11.5062 8.40286V29.0284L2.68674 23.4819L11.5062 8.40286Z" fill="#FFE94D"/>
</svg>
