<svg width="24" height="24" viewBox="0 0 24 24" fill="none" xmlns="http://www.w3.org/2000/svg">
<path d="M17 2H7C4.23858 2 2 4.23858 2 7V17C2 19.7614 4.23858 22 7 22H17C19.7614 22 22 19.7614 22 17V7C22 4.23858 19.7614 2 17 2Z" stroke="#808080" stroke-width="2" stroke-linecap="round" stroke-linejoin="round"/>
<path d="M15.9997 11.3698C16.1231 12.2021 15.981 13.052 15.5935 13.7988C15.206 14.5456 14.5929 15.1512 13.8413 15.5295C13.0898 15.9077 12.2382 16.0394 11.4075 15.9057C10.5768 15.7721 9.80947 15.3799 9.21455 14.785C8.61962 14.1901 8.22744 13.4227 8.09377 12.592C7.96011 11.7614 8.09177 10.9097 8.47003 10.1582C8.84829 9.40667 9.45389 8.79355 10.2007 8.40605C10.9475 8.01856 11.7975 7.8764 12.6297 7.99981C13.4786 8.1257 14.2646 8.52128 14.8714 9.12812C15.4782 9.73496 15.8738 10.5209 15.9997 11.3698Z" stroke="#808080" stroke-width="2" stroke-linecap="round" stroke-linejoin="round"/>
<path d="M17.5 6.5H17.51" stroke="#808080" stroke-width="2" stroke-linecap="round" stroke-linejoin="round"/>
</svg>
