<svg width="154" height="34" viewBox="0 0 154 34" fill="none" xmlns="http://www.w3.org/2000/svg">
<path d="M41.0291 7H45.845V25.8906H57.2593V30.0312H41.0291V7Z" fill="black"/>
<path d="M74.459 15.1562C75.8976 16.9583 76.6168 19.0885 76.6168 21.5469C76.6168 24.0469 75.8976 26.1875 74.459 27.9688C73.0205 29.7396 70.8367 30.625 67.9075 30.625C64.9784 30.625 62.7945 29.7396 61.356 27.9688C59.9175 26.1875 59.1982 24.0469 59.1982 21.5469C59.1982 19.0885 59.9175 16.9583 61.356 15.1562C62.7945 13.3542 64.9784 12.4531 67.9075 12.4531C70.8367 12.4531 73.0205 13.3542 74.459 15.1562ZM67.8919 16.2188C66.5889 16.2188 65.5829 16.6823 64.8741 17.6094C64.1757 18.526 63.8265 19.8385 63.8265 21.5469C63.8265 23.2552 64.1757 24.5729 64.8741 25.5C65.5829 26.4271 66.5889 26.8906 67.8919 26.8906C69.1949 26.8906 70.1956 26.4271 70.894 25.5C71.5924 24.5729 71.9416 23.2552 71.9416 21.5469C71.9416 19.8385 71.5924 18.526 70.894 17.6094C70.1956 16.6823 69.1949 16.2188 67.8919 16.2188Z" fill="black"/>
<path d="M87.8436 16.2969C86.3321 16.2969 85.2949 16.9375 84.732 18.2188C84.4401 18.8958 84.2942 19.7604 84.2942 20.8125V30.0312H79.8535V13.0312H84.1534V15.5156C84.7268 14.6406 85.2688 14.0104 85.7796 13.625C86.6969 12.9375 87.8592 12.5938 89.2664 12.5938C91.0281 12.5938 92.4666 13.0573 93.582 13.9844C94.7078 14.901 95.2707 16.4271 95.2707 18.5625V30.0312H90.705V19.6719C90.705 18.776 90.5851 18.0885 90.3453 17.6094C89.9075 16.7344 89.0736 16.2969 87.8436 16.2969Z" fill="black"/>
<path d="M114.91 7.03125V30.0312H110.578V27.6719C109.943 28.6823 109.218 29.4167 108.405 29.875C107.592 30.3333 106.581 30.5625 105.372 30.5625C103.381 30.5625 101.702 29.7604 100.337 28.1562C98.9817 26.5417 98.3041 24.474 98.3041 21.9531C98.3041 19.0469 98.9712 16.7604 100.306 15.0938C101.65 13.4271 103.443 12.5938 105.684 12.5938C106.716 12.5938 107.634 12.8229 108.436 13.2812C109.239 13.7292 109.89 14.3542 110.391 15.1562V7.03125H114.91ZM102.901 21.625C102.901 23.1979 103.214 24.4531 103.839 25.3906C104.454 26.3385 105.392 26.8125 106.654 26.8125C107.915 26.8125 108.874 26.3438 109.531 25.4062C110.188 24.4688 110.516 23.2552 110.516 21.7656C110.516 19.6823 109.989 18.1927 108.937 17.2969C108.29 16.7552 107.54 16.4844 106.685 16.4844C105.382 16.4844 104.423 16.9792 103.808 17.9688C103.203 18.9479 102.901 20.1667 102.901 21.625Z" fill="black"/>
<path d="M133.188 15.1562C134.627 16.9583 135.346 19.0885 135.346 21.5469C135.346 24.0469 134.627 26.1875 133.188 27.9688C131.75 29.7396 129.566 30.625 126.637 30.625C123.708 30.625 121.524 29.7396 120.085 27.9688C118.647 26.1875 117.927 24.0469 117.927 21.5469C117.927 19.0885 118.647 16.9583 120.085 15.1562C121.524 13.3542 123.708 12.4531 126.637 12.4531C129.566 12.4531 131.75 13.3542 133.188 15.1562ZM126.621 16.2188C125.318 16.2188 124.312 16.6823 123.603 17.6094C122.905 18.526 122.556 19.8385 122.556 21.5469C122.556 23.2552 122.905 24.5729 123.603 25.5C124.312 26.4271 125.318 26.8906 126.621 26.8906C127.924 26.8906 128.925 26.4271 129.623 25.5C130.322 24.5729 130.671 23.2552 130.671 21.5469C130.671 19.8385 130.322 18.526 129.623 17.6094C128.925 16.6823 127.924 16.2188 126.621 16.2188Z" fill="black"/>
<path d="M146.573 16.2969C145.061 16.2969 144.024 16.9375 143.461 18.2188C143.169 18.8958 143.023 19.7604 143.023 20.8125V30.0312H138.583V13.0312H142.883V15.5156C143.456 14.6406 143.998 14.0104 144.509 13.625C145.426 12.9375 146.588 12.5938 147.996 12.5938C149.757 12.5938 151.196 13.0573 152.311 13.9844C153.437 14.901 154 16.4271 154 18.5625V30.0312H149.434V19.6719C149.434 18.776 149.314 18.0885 149.075 17.6094C148.637 16.7344 147.803 16.2969 146.573 16.2969Z" fill="black"/>
<path d="M13.3509 0H26.7017L13.3509 19.9763H0L13.3509 0Z" fill="black"/>
<path d="M23.5 24H0L7 34H31L23.5 24Z" fill="black"/>
</svg>
