
<svg width="1441" height="501" viewBox="0 0 1441 501" fill="none" xmlns="http://www.w3.org/2000/svg">
<path d="M1432 6L1440.5 7V500.5H0.5V460L40 461.5L95.7578 463H120H157.5L201 462L244 460L268 459L301 456L329 453L371 447L412 439L441 433L471 426L505 416L526 409L565 394L589 384L619 369L649 352L668 340L687 327L714 306L739 286L755 272L799 234L849 192L894 156L909 145L939 124L964 108L982 97L1005 84L1037 67L1049 62L1080 48L1108 38L1135 29L1168 20L1206 11.5L1234 7L1257.5 4L1279 2L1336 0H1355L1380 1L1398 2L1415 4L1432 6Z" fill="white"/>
</svg>
