<svg width="32" height="33" viewBox="0 0 32 33" fill="none" xmlns="http://www.w3.org/2000/svg">
<g clip-path="url(#clip0_627_651)">
<path d="M16 32.9924C24.8366 32.9924 32 25.829 32 16.9924C32 8.15588 24.8366 0.992432 16 0.992432C7.16344 0.992432 0 8.15588 0 16.9924C0 25.829 7.16344 32.9924 16 32.9924Z" fill="#2775CA"/>
<path d="M12.9981 28.1181C12.9981 28.4972 12.7041 28.7138 12.3404 28.5978C7.50484 27.0504 4 22.5165 4 17.1626C4 11.8086 7.50484 7.27477 12.3482 5.72738C12.7118 5.61132 13.0058 5.82796 13.0058 6.20707V7.1355C13.0058 7.39082 12.8124 7.67709 12.5725 7.76219C8.74275 9.17032 5.99613 12.8531 5.99613 17.1626C5.99613 21.4721 8.73501 25.1548 12.5648 26.5552C12.8046 26.6403 12.9981 26.9343 12.9981 27.1897V28.1181Z" fill="white"/>
<path d="M17.0066 24.6599C17.0066 24.9385 16.7822 25.1628 16.5037 25.1628H15.5057C15.2271 25.1628 15.0028 24.9385 15.0028 24.6599V23.0816C12.8209 22.7876 11.7532 21.5652 11.4592 19.9017C11.4128 19.6155 11.6372 19.3601 11.9234 19.3601H13.0608C13.3006 19.3601 13.5018 19.5303 13.5482 19.7625C13.7571 20.7528 14.3374 21.5187 16.0782 21.5187C17.3703 21.5187 18.2832 20.7992 18.2832 19.7238C18.2832 18.6406 17.7416 18.2383 15.8461 17.9288C13.053 17.5497 11.73 16.6986 11.73 14.5091C11.73 12.8147 13.0144 11.4994 14.995 11.2131V9.66574C14.995 9.38721 15.2194 9.16284 15.4979 9.16284H16.496C16.7745 9.16284 16.9989 9.38721 16.9989 9.66574V11.2596C18.6082 11.5458 19.6372 12.4588 19.9699 13.983C20.0318 14.2692 19.8074 14.54 19.5134 14.54H18.4612C18.2368 14.54 18.0434 14.3853 17.9815 14.1686C17.6952 13.2015 17.0066 12.7837 15.8074 12.7837C14.4844 12.7837 13.7958 13.4182 13.7958 14.3234C13.7958 15.275 14.1904 15.747 16.2175 16.041C18.9641 16.4201 20.3877 17.2015 20.3877 19.5381C20.3877 21.3176 19.0724 22.7567 16.9989 23.0816L17.0066 24.6599Z" fill="white"/>
<path d="M19.6596 28.5978C19.2959 28.7138 19.0019 28.4972 19.0019 28.1181V27.1819C19.0019 26.9034 19.1721 26.6481 19.4352 26.5475C23.265 25.1471 26.0039 21.4643 26.0039 17.1548C26.0039 12.8454 23.265 9.16258 19.4352 7.76219C19.1953 7.67709 19.0019 7.38308 19.0019 7.1355V6.20707C19.0019 5.82796 19.2959 5.61132 19.6596 5.72738C24.5029 7.27477 28.0077 11.8086 28.0077 17.1626C28 22.5165 24.4952 27.0504 19.6596 28.5978Z" fill="white"/>
</g>
<defs>
<clipPath id="clip0_627_651">
<rect width="32" height="32" fill="white" transform="translate(0 0.992432)"/>
</clipPath>
</defs>
</svg>
