<svg width="32" height="32" viewBox="0 0 32 32" fill="none" xmlns="http://www.w3.org/2000/svg">
<path d="M16 0C24.8356 0 32 7.16444 32 16C32 24.8356 24.8356 32 16 32C7.16444 32 0 24.84 0 16C0 7.16 7.16444 0 16 0Z" fill="#26A17B"/>
<path d="M18.2529 14.2162V11.8339H23.6974V8.20728H8.87515V11.8339H14.3196V14.2162C9.89737 14.4206 6.56848 15.2962 6.56848 16.3451C6.56848 17.3939 9.89737 18.2695 14.3196 18.4739V26.0962H18.2574V18.4739C22.6751 18.2695 25.9951 17.3939 25.9951 16.3451C25.9907 15.2962 22.6707 14.4206 18.2529 14.2162ZM18.2574 17.8295C18.1463 17.8339 17.5774 17.8695 16.3063 17.8695C15.2885 17.8695 14.5774 17.8428 14.324 17.8295V17.8339C10.4174 17.6606 7.49737 16.9806 7.49737 16.1673C7.49737 15.3539 10.4129 14.6739 14.324 14.5006V17.1495C14.5818 17.1673 15.3107 17.2117 16.324 17.2117C17.5374 17.2117 18.1463 17.1628 18.2618 17.1495V14.4917C22.164 14.6651 25.0751 15.3451 25.0751 16.1584C25.0663 16.9717 22.1551 17.6517 18.2574 17.8295" fill="white"/>
</svg>
