<svg width="1440" height="619" viewBox="0 0 1440 619" fill="none" xmlns="http://www.w3.org/2000/svg">
<g clip-path="url(#clip0_1549_4687)">
<path d="M-386.618 663.997C97.08 599.108 -133.106 106.257 506.804 447.871C1146.71 789.486 1131.34 486.691 1403.83 405.128C1621.82 339.878 1868.07 659.304 1905.51 683.763" stroke="url(#paint0_linear_1549_4687)"/>
<path d="M-447.095 447.032C36.6032 382.143 -193.583 -110.709 446.327 230.906C1086.24 572.52 1070.86 269.725 1343.35 188.163C1561.34 122.913 1807.6 442.338 1845.04 466.798" stroke="url(#paint1_linear_1549_4687)"/>
<path d="M-426.587 553.503C57.111 488.614 -173.075 -4.23742 466.835 337.377C1106.75 678.992 1091.37 376.197 1363.86 294.634C1581.85 229.384 1828.11 548.81 1865.54 573.269" stroke="url(#paint2_linear_1549_4687)"/>
<path d="M-487.064 336.538C-3.36566 271.649 -233.552 -221.203 406.359 120.412C1046.27 462.026 1030.89 159.231 1303.38 77.6687C1521.37 12.4186 1767.63 331.844 1805.07 356.303" stroke="url(#paint3_linear_1549_4687)"/>
<path d="M-369.474 713.185C114.225 648.296 -115.961 155.444 523.949 497.059C1163.86 838.673 1148.48 535.878 1420.97 454.316C1638.97 389.066 1885.22 708.491 1922.66 732.95" stroke="url(#paint4_linear_1549_4687)"/>
<path d="M-369.474 713.185C114.225 648.296 -115.961 155.444 523.949 497.059C1163.86 838.673 1148.48 535.878 1420.97 454.316C1638.97 389.066 1885.22 708.491 1922.66 732.95" stroke="url(#paint5_linear_1549_4687)"/>
<path d="M-429.951 496.219C53.7477 431.33 -176.438 -61.5212 463.472 280.093C1103.38 621.708 1088.01 318.913 1360.5 237.35C1578.49 172.1 1824.74 491.526 1862.18 515.985" stroke="url(#paint6_linear_1549_4687)"/>
<path d="M-429.951 496.219C53.7477 431.33 -176.438 -61.5212 463.472 280.093C1103.38 621.708 1088.01 318.913 1360.5 237.35C1578.49 172.1 1824.74 491.526 1862.18 515.985" stroke="url(#paint7_linear_1549_4687)"/>
<path d="M-409.441 602.689C74.2577 537.8 -155.928 44.9485 483.982 386.563C1123.89 728.177 1108.52 425.383 1381.01 343.82C1599 278.57 1845.25 597.996 1882.69 622.455" stroke="url(#paint8_linear_1549_4687)"/>
<path d="M-409.441 602.689C74.2577 537.8 -155.928 44.9485 483.982 386.563C1123.89 728.177 1108.52 425.383 1381.01 343.82C1599 278.57 1845.25 597.996 1882.69 622.455" stroke="url(#paint9_linear_1549_4687)"/>
<path d="M-469.918 385.723C13.7802 320.835 -216.406 -172.017 423.504 169.597C1063.41 511.212 1048.04 208.417 1320.53 126.854C1538.52 61.6043 1784.78 381.03 1822.21 405.489" stroke="url(#paint10_linear_1549_4687)"/>
<path d="M-469.918 385.723C13.7802 320.835 -216.406 -172.017 423.504 169.597C1063.41 511.212 1048.04 208.417 1320.53 126.854C1538.52 61.6043 1784.78 381.03 1822.21 405.489" stroke="url(#paint11_linear_1549_4687)"/>
</g>
<defs>
<linearGradient id="paint0_linear_1549_4687" x1="1205.84" y1="272.089" x2="849.878" y2="1159.81" gradientUnits="userSpaceOnUse">
<stop stop-color="#8A4AF8"/>
<stop offset="1" stop-color="#8A4AF8" stop-opacity="0"/>
</linearGradient>
<linearGradient id="paint1_linear_1549_4687" x1="1145.36" y1="55.1234" x2="789.401" y2="942.845" gradientUnits="userSpaceOnUse">
<stop stop-color="#8A4AF8"/>
<stop offset="1" stop-color="#8A4AF8" stop-opacity="0"/>
</linearGradient>
<linearGradient id="paint2_linear_1549_4687" x1="1165.87" y1="161.595" x2="809.909" y2="1049.32" gradientUnits="userSpaceOnUse">
<stop stop-color="#8A4AF8"/>
<stop offset="1" stop-color="#8A4AF8" stop-opacity="0"/>
</linearGradient>
<linearGradient id="paint3_linear_1549_4687" x1="1105.39" y1="-55.3709" x2="749.432" y2="832.351" gradientUnits="userSpaceOnUse">
<stop stop-color="#8A4AF8"/>
<stop offset="1" stop-color="#8A4AF8" stop-opacity="0"/>
</linearGradient>
<linearGradient id="paint4_linear_1549_4687" x1="1222.98" y1="321.276" x2="867.022" y2="1209" gradientUnits="userSpaceOnUse">
<stop stop-color="#53D3E0"/>
<stop offset="1" stop-color="#53D3E0" stop-opacity="0"/>
</linearGradient>
<linearGradient id="paint5_linear_1549_4687" x1="1222.98" y1="321.276" x2="867.022" y2="1209" gradientUnits="userSpaceOnUse">
<stop stop-color="#53D3E0"/>
<stop offset="1" stop-color="#53D3E0" stop-opacity="0"/>
</linearGradient>
<linearGradient id="paint6_linear_1549_4687" x1="1162.51" y1="104.311" x2="806.545" y2="992.033" gradientUnits="userSpaceOnUse">
<stop stop-color="#53D3E0"/>
<stop offset="1" stop-color="#53D3E0" stop-opacity="0"/>
</linearGradient>
<linearGradient id="paint7_linear_1549_4687" x1="1162.51" y1="104.311" x2="806.545" y2="992.033" gradientUnits="userSpaceOnUse">
<stop stop-color="#53D3E0"/>
<stop offset="1" stop-color="#53D3E0" stop-opacity="0"/>
</linearGradient>
<linearGradient id="paint8_linear_1549_4687" x1="1183.02" y1="210.781" x2="827.055" y2="1098.5" gradientUnits="userSpaceOnUse">
<stop stop-color="#53D3E0"/>
<stop offset="1" stop-color="#53D3E0" stop-opacity="0"/>
</linearGradient>
<linearGradient id="paint9_linear_1549_4687" x1="1183.02" y1="210.781" x2="827.055" y2="1098.5" gradientUnits="userSpaceOnUse">
<stop stop-color="#53D3E0"/>
<stop offset="1" stop-color="#53D3E0" stop-opacity="0"/>
</linearGradient>
<linearGradient id="paint10_linear_1549_4687" x1="1122.54" y1="-6.18491" x2="766.578" y2="881.537" gradientUnits="userSpaceOnUse">
<stop stop-color="#53D3E0"/>
<stop offset="1" stop-color="#53D3E0" stop-opacity="0"/>
</linearGradient>
<linearGradient id="paint11_linear_1549_4687" x1="1122.54" y1="-6.18491" x2="766.578" y2="881.537" gradientUnits="userSpaceOnUse">
<stop stop-color="#53D3E0"/>
<stop offset="1" stop-color="#53D3E0" stop-opacity="0"/>
</linearGradient>
<clipPath id="clip0_1549_4687">
<rect width="1598" height="619" fill="white" transform="translate(-130)"/>
</clipPath>
</defs>
</svg>
