<svg width="32" height="33" viewBox="0 0 32 33" fill="none" xmlns="http://www.w3.org/2000/svg">
<g clip-path="url(#clip0_627_683)">
<path d="M16 32.9924C24.8366 32.9924 32 25.829 32 16.9924C32 8.15588 24.8366 0.992432 16 0.992432C7.16344 0.992432 0 8.15588 0 16.9924C0 25.829 7.16344 32.9924 16 32.9924Z" fill="black"/>
<path d="M23.3006 8.03052H26.2863L20.0714 14.4744C17.8212 16.8074 14.1731 16.8074 11.9277 14.4744L5.71279 8.03052H8.69849L13.4181 12.9255C14.8452 14.4013 17.1539 14.4013 18.5761 12.9255L23.3006 8.03052ZM8.65952 25.9544H5.67383L11.9277 19.4667C14.1779 17.1337 17.826 17.1337 20.0763 19.4667L26.3301 25.9544H23.3445L18.5859 21.0156C17.1588 19.5398 14.8501 19.5398 13.4279 21.0156L8.65952 25.9544Z" fill="white"/>
</g>
<defs>
<clipPath id="clip0_627_683">
<rect width="32" height="32" fill="white" transform="translate(0 0.992432)"/>
</clipPath>
</defs>
</svg>
